<?xml version="1.0" encoding="UTF-8" standalone="no"?>
<!-- Created with Inkscape (http://www.inkscape.org/) -->

<svg
   xmlns:dc="http://purl.org/dc/elements/1.1/"
   xmlns:cc="http://creativecommons.org/ns#"
   xmlns:rdf="http://www.w3.org/1999/02/22-rdf-syntax-ns#"
   xmlns:svg="http://www.w3.org/2000/svg"
   xmlns="http://www.w3.org/2000/svg"
   xmlns:sodipodi="http://sodipodi.sourceforge.net/DTD/sodipodi-0.dtd"
   xmlns:inkscape="http://www.inkscape.org/namespaces/inkscape"
   width="742.49658"
   height="723.77869"
   id="svg2"
   version="1.1"
   inkscape:version="0.48.1 r9760"
   style="display:inline"
   sodipodi:docname="New document 1">
  <defs
     id="defs4" />
  <sodipodi:namedview
     id="base"
     pagecolor="#ffffff"
     bordercolor="#666666"
     borderopacity="1.0"
     inkscape:pageopacity="0.0"
     inkscape:pageshadow="2"
     inkscape:zoom="0.35"
     inkscape:cx="-222.36108"
     inkscape:cy="231.99677"
     inkscape:document-units="px"
     inkscape:current-layer="layer2"
     showgrid="false"
     fit-margin-top="0"
     fit-margin-left="0"
     fit-margin-right="0"
     fit-margin-bottom="0"
     inkscape:window-width="1280"
     inkscape:window-height="782"
     inkscape:window-x="0"
     inkscape:window-y="18"
     inkscape:window-maximized="0" />
  <metadata
     id="metadata7">
    <rdf:RDF>
      <cc:Work
         rdf:about="">
        <dc:format>image/svg+xml</dc:format>
        <dc:type
           rdf:resource="http://purl.org/dc/dcmitype/StillImage" />
        <dc:title></dc:title>
      </cc:Work>
    </rdf:RDF>
  </metadata>
  <g
     inkscape:groupmode="layer"
     id="layer2"
     inkscape:label="Layer"
     transform="translate(8.3911609,-1.8893481)">
    <g
       id="g3421"
       transform="translate(-51.286262,-42.515867)">
      <path
         style="fill:#b3b3b3"
         d="m 65.828558,764.7479 c -4.393598,-4.3936 -4.391329,-6.34935 0.03725,-32.10765 4.46533,-25.97203 8.543106,-112.51481 8.559706,-181.66289 l 0.003,-12.67055 -3.25,-0.64939 c -31.411816,-6.27647 -36.798112,-14.76162 -14.96985,-23.58234 8.946015,-3.61504 16.772811,-7.08014 17.392879,-7.70021 1.127816,-1.12781 -0.34483,-167.39732 -1.841257,-207.88776 l -0.634221,-17.16078 -11.848776,-5.66864 c -15.178897,-7.26183 -14.661137,-9.0455 4.651225,-16.02337 7.757411,-2.80288 7.335547,-0.46857 6.413227,-35.48642 -0.456316,-17.325 -1.519722,-58.05 -2.363125,-90.5 -0.843403,-32.45 -1.789191,-62.034855 -2.101753,-65.744118 -0.73516,-8.724384 -3.600729,-7.822679 40.551657,-12.760343 20.075,-2.245034 43.66828,-4.97167 52.42952,-6.059191 19.77514,-2.454661 17.99397,-5.934731 16.05688,31.372033 -1.99025,38.330559 -1.87437,39.479379 2.38964,23.691619 12.29863,-45.53639 28.62935,-66.66474 44.62396,-57.733554 11.59336,6.473586 13.94266,29.562435 8.31641,81.733554 l -2.10292,19.5 -7.39016,19 c -11.6634,29.98644 -18.08368,53.53592 -23.85509,87.5 -3.64159,21.43036 -4.23377,19.94777 9.53176,23.8636 5.02266,1.42877 25.79122,9.86248 40.09174,16.28047 4.72546,2.12076 9.15911,3.85593 9.85255,3.85593 0.69344,0 9.42716,-7.99379 19.40826,-17.76398 9.9811,-9.77018 24.22245,-22.97313 31.64745,-29.33989 17.79985,-15.26293 16.51879,-13.30678 15.1778,-23.17613 -7.37458,-54.27483 11.02093,-92.16059 52.60797,-108.34672 9.35798,-3.64223 10.03935,-4.12297 18.57973,-13.10898 21.20889,-22.315551 42.06262,-31.264304 72.85679,-31.264304 l 16.38906,0 8.94432,-3.607806 c 43.8848,-17.701486 78.21804,-6.648447 91.40388,29.42603 12.78665,34.98236 -22.65359,75.12451 -62.20955,70.46297 l -4.75,-0.55977 0,3.51164 c 0,23.18669 -23.73505,50.42446 -56.86901,65.26151 -6.80295,3.0463 -13.6102,6.42253 -15.12722,7.50275 -17.82231,12.6906 -46.1939,18.6141 -62.41872,13.03194 -6.13403,-2.11042 -19.40564,-10.39816 -20.27373,-12.66037 -1.26861,-3.30594 -3.81255,-1.85227 -20.26112,11.57779 -22.4219,18.30721 -55.09079,49.60584 -55.03559,52.72719 0.008,0.45437 4.39553,3.01206 9.75,5.68374 12.1034,6.03916 32.92946,17.56696 51.29356,28.39239 16.82889,9.92044 13.79524,9.96415 23.96391,-0.34529 9.5049,-9.63648 23.60983,-21.26625 33.74104,-27.82009 4.08622,-2.64337 8.54628,-6.68401 11.3193,-10.25487 9.17623,-11.81636 36.15352,-30.59763 68.41758,-47.63151 26.32438,-13.89801 64.31268,-33.10433 74.5,-37.6661 23.43976,-10.49605 66.70918,-29.64446 76,-33.63297 5.775,-2.47919 12.975,-5.58846 16,-6.9095 6.83218,-2.98366 37.23512,-14.89964 46,-18.02903 3.575,-1.27641 15.275,-5.45991 26,-9.29668 21.44108,-7.67033 39.13916,-12.46956 44.17954,-11.98025 3.78255,0.36721 3.61708,0.0951 11.13864,18.31629 7.64635,18.52347 7.6812,18.88526 2.31403,24.02791 -8.61316,8.25286 -49.8187,34.5763 -71.63221,45.76099 -4.125,2.11506 -9.525,5.10741 -12,6.64966 -2.475,1.54226 -10.8,6.18457 -18.5,10.31624 -7.7,4.13168 -18.275,9.86835 -23.5,12.74815 -5.225,2.87981 -23,12.04903 -39.5,20.37606 -96.39467,48.64734 -153.29028,70.62099 -182.8565,70.62099 -11.16006,0 -22.78962,17.88475 -29.81755,45.8555 l -3.93083,15.6445 1.64495,10.34685 c 4.51939,28.42713 17.04771,47.09258 32.56593,48.51868 19.11769,1.75688 43.54874,9.13731 76.25114,23.03488 9.42857,4.00687 18.94286,7.98365 21.14286,8.8373 13.58197,5.27012 88.95537,42.35622 120,59.04381 66.03077,35.49389 104.29078,58.43062 123.08992,73.79196 8.39091,6.85646 8.41331,6.91897 4.65008,12.98074 -1.51799,2.44518 -5.68049,10.18848 -9.25,17.20734 -3.5695,7.01886 -7.23595,12.9985 -8.14766,13.28808 -4.84668,1.53944 -56.74233,-15.19329 -89.34234,-28.80668 -6.05,-2.52641 -18.65,-7.63385 -28,-11.34988 -9.35,-3.71602 -21.5,-8.74545 -27,-11.17651 -5.5,-2.43106 -15.175,-6.65663 -21.5,-9.39016 -17.78682,-7.68708 -28.44371,-12.53436 -41.5,-18.87625 -6.6,-3.20584 -19.875,-9.65597 -29.5,-14.33361 -67.0235,-32.57266 -103.12616,-55.30729 -116.70486,-73.49159 -3.13157,-4.19373 -6.10154,-7.90586 -6.59994,-8.24918 -5.2813,-3.63797 -26.68875,-23.59058 -31.72326,-29.56736 -3.55957,-4.22577 -7.60941,-8.99076 -8.99965,-10.58885 l -2.52772,-2.90562 -15.97228,8.01444 c -8.78476,4.40794 -22.04729,10.57097 -29.47229,13.69561 -7.425,3.12465 -19.575,8.30576 -27,11.51358 -7.425,3.20782 -21.15,8.56674 -30.5,11.90872 -9.35,3.34197 -21.275,7.63433 -26.5,9.53859 -8.65451,3.15414 -24.56164,7.65785 -48.5,13.73159 l -9,2.28352 -0.74356,7.5 c -0.40896,4.125 -0.94829,39.225 -1.1985,78 -0.25022,38.775 -0.47812,70.8026 -0.50644,71.17245 -0.0283,0.36984 -1.739,1.21878 -3.8015,1.88652 -14.61387,4.73127 -30.07686,17.47758 -68.750006,56.67141 -23.57343,23.89082 -23.890543,24.07908 -30.1,17.86962 z M 250.16511,436.05518 c 40.2801,-16.174 73.2426,-29.72339 73.25,-30.10975 0.0124,-0.64852 -53.96414,-27.55269 -74.36292,-37.06557 l -8.87637,-4.13946 -2.12363,2.55168 c -23.76026,28.54942 -64.62363,88.80831 -64.62363,95.2968 0,4.78752 -9.12,7.941 76.73655,-26.5337 z M 184.08074,383.8589 c 1.73369,-2.31605 8.14619,-10.69324 14.25,-18.61599 13.36312,-17.34535 13.31427,-15.09609 0.4585,-21.11435 -12.72697,-5.95797 -12.11235,-5.8994 -12.91374,-1.23066 -0.35403,2.0625 -1.29178,6 -2.08389,8.75 -1.20076,4.16874 -4.27579,28.77159 -4.34329,34.75 -0.0307,2.71592 1.20631,2.03794 4.63242,-2.539 z m 179.45939,-10.461 c 9.70211,-11.77259 33.58124,-35.38735 38.68291,-38.25465 4.33504,-2.43643 5.89858,-4.70229 4.32832,-6.27255 -3.00192,-3.00192 -31.35869,24.08793 -44.77776,42.7772 -9.28125,12.92637 -8.26991,13.92826 1.76653,1.75 z"
         id="path3439"
         inkscape:connector-curvature="0" />
      <path
         style="fill:#c79766"
         d="m 66.329768,764.04214 c -3.767334,-4.03294 -3.736439,-5.68333 0.580077,-30.98685 4.730713,-27.73155 9.586331,-134.22102 8.338424,-182.87155 l -0.319711,-12.46416 -3.5,-0.93564 c -32.415588,-8.66548 -35.216133,-13.50727 -13,-22.47539 l 16.5,-6.66065 0.340871,-11.5 c 0.470982,-15.88956 -1.927229,-200.98123 -2.707989,-209 l -0.632882,-6.5 -11.25,-5.42986 c -14.438711,-6.96891 -14.20376,-7.44736 8.097634,-16.48962 l 3.847634,-1.56005 -0.585867,-15.76024 C 71.715732,232.74 71.214462,215.5229 70.924026,203.1479 69.52464,143.52245 67.394189,69.308138 66.99859,66.405259 c -0.750699,-5.508577 -0.731159,-5.51324 44.54247,-10.631355 23.31312,-2.635513 46.8875,-5.402945 52.3875,-6.149849 12.77192,-1.734436 12.71885,-2.159355 8.08589,64.751915 -0.25622,3.70045 -0.0606,6.97857 0.4348,7.28472 0.91165,0.56342 1.94673,-2.59251 8.53168,-26.012794 12.44511,-44.262766 35.59318,-64.230725 47.15845,-40.679763 l 2.78918,5.679763 0,27 c 0,42.368244 -1.59018,53.303614 -11.56058,79.500004 -12.5094,32.8674 -19.19386,58.30144 -24.8491,94.54962 -2.1183,13.57757 -2.37949,12.87023 5.72284,15.49828 11.81234,3.83143 24.59251,8.86937 44.35065,17.48301 13.39536,5.83977 10.35754,7.20337 33.53077,-15.05107 10.89298,-10.46109 25.71499,-24.06112 32.93779,-30.22228 15.34997,-13.09376 14.48163,-11.60279 12.67154,-21.75756 -8.94538,-50.18433 11.26448,-91.19998 53.03717,-107.63827 9.61604,-3.78408 11.16689,-4.7397 13.72433,-8.45681 14.94315,-21.719118 45.17066,-35.64852 76.73541,-35.361116 l 15.69918,0.142944 10,-3.98672 c 49.80561,-19.856101 92.2564,1.06331 91.92511,45.299972 -0.21857,29.18601 -34.55846,57.77864 -63.11982,52.55583 -5.30453,-0.97001 -6.30529,-0.41832 -6.30529,3.47588 0,24.92751 -28.28912,55.34653 -63.26098,68.02395 -2.06855,0.74986 -5.80106,2.76698 -8.29447,4.48249 -28.35233,19.50692 -60.72004,19.98956 -80.59447,1.20176 l -3.64992,-3.45036 -5.85008,4.10935 c -22.52162,15.82013 -71.02239,61.91444 -68.10786,64.72855 0.69178,0.66795 8.45778,5.00709 17.25778,9.64253 20.78334,10.94772 32.33722,17.34508 46.64426,25.82685 14.33208,8.49661 12.71002,8.61666 22.87782,-1.69322 10.9422,-11.0951 22.63227,-20.91987 32.56575,-27.36945 5.279,-3.42754 9.40977,-7.09609 12.41217,-11.02328 14.50732,-18.9758 84.92581,-59.82358 161,-93.39155 8.525,-3.76168 21.35,-9.4457 28.5,-12.63116 7.15,-3.18545 16.375,-7.20459 20.5,-8.93142 4.125,-1.72682 9.075,-3.85845 11,-4.73695 1.925,-0.8785 5.975,-2.60573 9,-3.83829 3.025,-1.23257 11.8,-4.81159 19.5,-7.95338 42.64574,-17.40054 90.5387,-33.52813 99.56607,-33.52813 3.40412,0 5.06204,2.15271 7.81064,10.14166 1.04732,3.04407 2.40338,6.395 3.01348,7.44651 0.61009,1.05151 2.67609,5.70351 4.59111,10.33778 l 3.48185,8.42596 -4.73158,4.3539 c -9.56556,8.80206 -44.40915,30.86808 -75.23157,47.64324 -4.675,2.54438 -9.625,5.28858 -11,6.09822 -25.78099,15.18067 -101.08517,54.11948 -120,62.05044 -3.575,1.499 -8.3,3.76081 -10.5,5.02625 -2.2,1.26544 -13.225,6.34636 -24.5,11.29092 -57.97039,25.42246 -81.2845,33.04229 -101.75044,33.25541 -10.11683,0.10534 -14.17327,2.97923 -23.30386,16.51018 -20.17285,29.89487 -19.42507,71.80134 1.72338,96.57961 7.55268,8.849 8.48993,9.33539 20.63895,10.71081 40.21166,4.55246 134.0349,45.96654 251.19197,110.87747 43.98196,24.36823 73.49375,42.83618 86.27601,53.98998 l 6.276,5.47645 -3.40796,6.14261 c -1.87438,3.37843 -5.96441,11.16782 -9.08895,17.30976 -7.80769,15.34766 -15.5505,14.24961 -82.0551,-11.63666 -28.74115,-11.18721 -74.37858,-29.94692 -81.49552,-33.49952 -3.57747,-1.78578 -9.65448,-4.47267 -13.50448,-5.97088 -22.9557,-8.9331 -114.9119,-54.77278 -137.29184,-68.43926 -24.20094,-14.77849 -39.16219,-26.87173 -47.14669,-38.10887 -1.75392,-2.46842 -9.09742,-9.66842 -16.31888,-16 -11.9502,-10.4776 -19.75733,-18.5891 -28.3769,-29.48316 l -3.13431,-3.96137 -18.36569,8.89532 c -31.7185,15.36269 -66.50466,29.68267 -108.86569,44.81536 -10.83887,3.87198 -29.21515,9.09077 -54.45582,15.46521 -9.2157,2.3274 -8.55485,-3.64856 -9.36069,84.647 l -0.68349,74.89034 -4,1.19159 c -12.51566,3.7284 -33.13198,20.87239 -69.500002,57.79437 -21.335309,21.66029 -22.01054,22.0746 -27.09879,16.62761 z M 205.07845,512.72534 c 24.03794,-5.31674 68.48594,-22.173 114.85011,-43.55523 56.13662,-25.88909 65.01174,-34.65495 73.93239,-73.02221 4.49228,-19.32105 10.88924,-33.34049 19.1783,-42.0307 6.38362,-6.69256 6.32489,-6.35864 1.87805,-10.67736 -3.91687,-3.80401 -6.48874,-9.0974 -6.48874,-13.35505 0,-14.57156 -52.93581,40.14883 -59.55538,61.56311 -0.68006,2.2 -2.16748,6.339 -3.30537,9.19777 l -2.06889,5.19777 2.99675,7.26719 c 1.64821,3.99696 2.86816,7.93486 2.71101,8.7509 -0.184,0.95541 -36.0417,15.74486 -100.70361,41.53504 -115.58751,46.10169 -110.26023,42.82766 -79.57451,48.90487 15.8522,3.13947 22.77422,3.18234 36.14989,0.2239 z M 356.44899,418.8979 c -14.99129,-7.66018 -9.83958,-29.25 6.97957,-29.25 17.13348,0 22.25103,21.44666 6.97957,29.25 -2.42184,1.2375 -5.56265,2.25 -6.97957,2.25 -1.41692,0 -4.55773,-1.0125 -6.97957,-2.25 z m 12.75706,-11.3067 c 4.93445,-3.45622 0.53391,-11.4433 -6.30475,-11.4433 -4.55634,0 -9.24765,8.82509 -6.27274,11.8 1.71684,1.71684 9.95047,1.48334 12.57749,-0.3567 z m 33.03648,79.3067 c 2.02387,-4.50915 4.9605,-7.94127 9.68149,-11.31503 l 2.88964,-2.06503 -5.54204,-6.93497 c -3.04812,-3.81423 -6.78485,-9.25808 -8.30384,-12.09744 -3.17236,-5.92991 -4.05549,-6.30503 -14.88809,-6.32388 -8.70992,-0.0152 -12.73751,1.37952 -17.08335,5.9156 l -2.718,2.83699 5.85499,6.36688 c 3.22025,3.50178 8.01193,8.84188 10.64818,11.86688 3.91767,4.49538 16.35979,16 17.30382,16 0.1373,0 1.10804,-1.9125 2.1572,-4.25 z M 250.42856,437.12357 c 39.875,-16.0556 73.0625,-29.41647 73.75,-29.69082 0.6875,-0.27436 1.25,-0.92706 1.25,-1.45045 0,-1.75326 -85.23951,-42.99457 -86.42341,-41.81412 -0.59212,0.59041 -4.09735,4.98988 -7.78939,9.7766 -43.2235,56.03909 -68.39361,98.36727 -55.43438,93.22311 1.18095,-0.46878 34.77218,-13.98872 74.64718,-30.04432 z m 90.61238,-48.19975 c 3.096,-6.17325 7.84518,-14.50818 10.55373,-18.52208 2.70855,-4.0139 4.65347,-7.73675 4.32204,-8.27301 -1.44339,-2.33545 -35.52978,-21.4418 -64.32544,-36.05616 l -13.33728,-6.76893 -5.25562,5.67213 c -10.15655,10.96147 -26.57301,30.64636 -26.56298,31.85154 0.008,0.93887 85.84045,43.32059 87.73406,43.32059 0.68332,0 3.77549,-5.05084 6.87149,-11.22408 z M 194.12622,372.60031 c 7.69504,-9.92617 14.77329,-19.24153 15.72943,-20.7008 l 1.73845,-2.65321 -12.12861,-6.07989 c -13.2426,-6.63831 -13.66411,-6.67393 -14.59532,-1.23343 -0.34972,2.04321 -1.28206,6.18992 -2.07187,9.21492 -2.76327,10.58339 -5.55714,42.72191 -3.51641,40.45 0.46934,-0.5225 7.14928,-9.07142 14.84433,-18.99759 z m 43.28341,-52.87641 c 14.49851,-15.59029 14.96034,-14.54234 -10.57782,-24.00246 -2.14679,-0.79524 -7.21238,-2.82461 -11.25686,-4.50971 -9.93505,-4.13937 -9.88264,-4.15429 -9.43286,2.68617 0.7336,11.15693 3.66122,18.63273 13.12305,33.51028 4.6393,7.29473 3.93842,7.59155 18.14449,-7.68428 z"
         id="path3437"
         inkscape:connector-curvature="0" />
      <path
         style="fill:#ba7b38"
         d="m 66.329768,764.04214 c -3.767334,-4.03294 -3.736439,-5.68333 0.580077,-30.98685 4.730713,-27.73155 9.586331,-134.22102 8.338424,-182.87155 l -0.319711,-12.46416 -3.5,-0.93564 c -32.415588,-8.66548 -35.216133,-13.50727 -13,-22.47539 l 16.5,-6.66065 0.340871,-11.5 c 0.470982,-15.88956 -1.927229,-200.98123 -2.707989,-209 l -0.632882,-6.5 -11.25,-5.42986 c -14.438711,-6.96891 -14.20376,-7.44736 8.097634,-16.48962 l 3.847634,-1.56005 -0.585867,-15.76024 C 71.715732,232.74 71.214462,215.5229 70.924026,203.1479 69.52464,143.52245 67.394189,69.308138 66.99859,66.405259 c -0.750699,-5.508577 -0.731159,-5.51324 44.54247,-10.631355 23.31312,-2.635513 46.8875,-5.402945 52.3875,-6.149849 12.77192,-1.734436 12.71885,-2.159355 8.08589,64.751915 -0.25622,3.70045 -0.0606,6.97857 0.4348,7.28472 0.91165,0.56342 1.94673,-2.59251 8.53168,-26.012794 12.44511,-44.262766 35.59318,-64.230725 47.15845,-40.679763 l 2.78918,5.679763 0,27 c 0,42.368244 -1.59018,53.303614 -11.56058,79.500004 -12.5094,32.8674 -19.19386,58.30144 -24.8491,94.54962 -2.1183,13.57757 -2.37949,12.87023 5.72284,15.49828 11.81234,3.83143 24.59251,8.86937 44.35065,17.48301 13.39536,5.83977 10.35754,7.20337 33.53077,-15.05107 10.89298,-10.46109 25.71499,-24.06112 32.93779,-30.22228 15.34997,-13.09376 14.48163,-11.60279 12.67154,-21.75756 -8.94538,-50.18433 11.26448,-91.19998 53.03717,-107.63827 9.61604,-3.78408 11.16689,-4.7397 13.72433,-8.45681 14.94315,-21.719118 45.17066,-35.64852 76.73541,-35.361116 l 15.69918,0.142944 10,-3.98672 c 49.80561,-19.856101 92.2564,1.06331 91.92511,45.299972 -0.21857,29.18601 -34.55846,57.77864 -63.11982,52.55583 -5.30453,-0.97001 -6.30529,-0.41832 -6.30529,3.47588 0,24.92751 -28.28912,55.34653 -63.26098,68.02395 -2.06855,0.74986 -5.80106,2.76698 -8.29447,4.48249 -28.35233,19.50692 -60.72004,19.98956 -80.59447,1.20176 l -3.64992,-3.45036 -5.85008,4.10935 c -22.52162,15.82013 -71.02239,61.91444 -68.10786,64.72855 0.69178,0.66795 8.45778,5.00709 17.25778,9.64253 20.78334,10.94772 32.33722,17.34508 46.64426,25.82685 14.33208,8.49661 12.71002,8.61666 22.87782,-1.69322 10.9422,-11.0951 22.63227,-20.91987 32.56575,-27.36945 5.279,-3.42754 9.40977,-7.09609 12.41217,-11.02328 14.50732,-18.9758 84.92581,-59.82358 161,-93.39155 8.525,-3.76168 21.35,-9.4457 28.5,-12.63116 7.15,-3.18545 16.375,-7.20459 20.5,-8.93142 4.125,-1.72682 9.075,-3.85845 11,-4.73695 1.925,-0.8785 5.975,-2.60573 9,-3.83829 3.025,-1.23257 11.8,-4.81159 19.5,-7.95338 42.64574,-17.40054 90.5387,-33.52813 99.56607,-33.52813 3.40412,0 5.06204,2.15271 7.81064,10.14166 1.04732,3.04407 2.40338,6.395 3.01348,7.44651 0.61009,1.05151 2.67609,5.70351 4.59111,10.33778 l 3.48185,8.42596 -4.73158,4.3539 c -9.56556,8.80206 -44.40915,30.86808 -75.23157,47.64324 -4.675,2.54438 -9.625,5.28858 -11,6.09822 -25.78099,15.18067 -101.08517,54.11948 -120,62.05044 -3.575,1.499 -8.3,3.76081 -10.5,5.02625 -2.2,1.26544 -13.225,6.34636 -24.5,11.29092 -57.97039,25.42246 -81.2845,33.04229 -101.75044,33.25541 -10.11683,0.10534 -14.17327,2.97923 -23.30386,16.51018 -20.17285,29.89487 -19.42507,71.80134 1.72338,96.57961 7.55268,8.849 8.48993,9.33539 20.63895,10.71081 40.21166,4.55246 134.0349,45.96654 251.19197,110.87747 43.98196,24.36823 73.49375,42.83618 86.27601,53.98998 l 6.276,5.47645 -3.40796,6.14261 c -1.87438,3.37843 -5.96441,11.16782 -9.08895,17.30976 -7.80769,15.34766 -15.5505,14.24961 -82.0551,-11.63666 -28.74115,-11.18721 -74.37858,-29.94692 -81.49552,-33.49952 -3.57747,-1.78578 -9.65448,-4.47267 -13.50448,-5.97088 -22.9557,-8.9331 -114.9119,-54.77278 -137.29184,-68.43926 -24.20094,-14.77849 -39.16219,-26.87173 -47.14669,-38.10887 -1.75392,-2.46842 -9.09742,-9.66842 -16.31888,-16 -11.9502,-10.4776 -19.75733,-18.5891 -28.3769,-29.48316 l -3.13431,-3.96137 -18.36569,8.89532 c -31.7185,15.36269 -66.50466,29.68267 -108.86569,44.81536 -10.83887,3.87198 -29.21515,9.09077 -54.45582,15.46521 -9.2157,2.3274 -8.55485,-3.64856 -9.36069,84.647 l -0.68349,74.89034 -4,1.19159 c -12.51566,3.7284 -33.13198,20.87239 -69.500002,57.79437 -21.335309,21.66029 -22.01054,22.0746 -27.09879,16.62761 z M 632.253,577.77837 c 6.75371,-12.22651 7.16853,-11.19642 -7.57444,-18.80854 -7.0125,-3.6207 -21.075,-10.92533 -31.25,-16.2325 -31.9082,-16.643 -74.99309,-36.90638 -92.5,-43.50395 -14.66598,-5.52695 -14.97433,-5.56922 -17.47134,-2.39478 -3.79736,4.82756 -2.63513,6.25299 10.47134,12.84266 27.73189,13.94305 48.64478,26.87185 62.23801,38.47688 12.15976,10.38122 62.98435,38.98976 69.26739,38.98976 1.03944,0 3.54567,-3.44362 6.81904,-9.36953 z M 205.07845,512.72534 c 24.03794,-5.31674 68.48594,-22.173 114.85011,-43.55523 56.13662,-25.88909 65.01174,-34.65495 73.93239,-73.02221 4.49228,-19.32105 10.88924,-33.34049 19.1783,-42.0307 6.38362,-6.69256 6.32489,-6.35864 1.87805,-10.67736 -3.91687,-3.80401 -6.48874,-9.0974 -6.48874,-13.35505 0,-14.57156 -52.93581,40.14883 -59.55538,61.56311 -0.68006,2.2 -2.16748,6.339 -3.30537,9.19777 l -2.06889,5.19777 2.99675,7.26719 c 1.64821,3.99696 2.86816,7.93486 2.71101,8.7509 -0.184,0.95541 -36.0417,15.74486 -100.70361,41.53504 -115.58751,46.10169 -110.26023,42.82766 -79.57451,48.90487 15.8522,3.13947 22.77422,3.18234 36.14989,0.2239 z M 356.44899,418.8979 c -14.99129,-7.66018 -9.83958,-29.25 6.97957,-29.25 17.13348,0 22.25103,21.44666 6.97957,29.25 -2.42184,1.2375 -5.56265,2.25 -6.97957,2.25 -1.41692,0 -4.55773,-1.0125 -6.97957,-2.25 z m 12.75706,-11.3067 c 4.93445,-3.45622 0.53391,-11.4433 -6.30475,-11.4433 -4.55634,0 -9.24765,8.82509 -6.27274,11.8 1.71684,1.71684 9.95047,1.48334 12.57749,-0.3567 z m 33.03648,79.3067 c 2.02387,-4.50915 4.9605,-7.94127 9.68149,-11.31503 l 2.88964,-2.06503 -5.54204,-6.93497 c -3.04812,-3.81423 -6.78485,-9.25808 -8.30384,-12.09744 -3.17236,-5.92991 -4.05549,-6.30503 -14.88809,-6.32388 -8.70992,-0.0152 -12.73751,1.37952 -17.08335,5.9156 l -2.718,2.83699 5.85499,6.36688 c 3.22025,3.50178 8.01193,8.84188 10.64818,11.86688 3.91767,4.49538 16.35979,16 17.30382,16 0.1373,0 1.10804,-1.9125 2.1572,-4.25 z M 250.42856,437.12357 c 39.875,-16.0556 73.0625,-29.41647 73.75,-29.69082 0.6875,-0.27436 1.25,-0.92706 1.25,-1.45045 0,-1.75326 -85.23951,-42.99457 -86.42341,-41.81412 -0.59212,0.59041 -4.09735,4.98988 -7.78939,9.7766 -43.2235,56.03909 -68.39361,98.36727 -55.43438,93.22311 1.18095,-0.46878 34.77218,-13.98872 74.64718,-30.04432 z m 90.61238,-48.19975 c 3.096,-6.17325 7.84518,-14.50818 10.55373,-18.52208 2.70855,-4.0139 4.65347,-7.73675 4.32204,-8.27301 -1.44339,-2.33545 -35.52978,-21.4418 -64.32544,-36.05616 l -13.33728,-6.76893 -5.25562,5.67213 c -10.15655,10.96147 -26.57301,30.64636 -26.56298,31.85154 0.008,0.93887 85.84045,43.32059 87.73406,43.32059 0.68332,0 3.77549,-5.05084 6.87149,-11.22408 z M 194.12622,372.60031 c 7.69504,-9.92617 14.77329,-19.24153 15.72943,-20.7008 l 1.73845,-2.65321 -12.12861,-6.07989 c -13.2426,-6.63831 -13.66411,-6.67393 -14.59532,-1.23343 -0.34972,2.04321 -1.28206,6.18992 -2.07187,9.21492 -2.76327,10.58339 -5.55714,42.72191 -3.51641,40.45 0.46934,-0.5225 7.14928,-9.07142 14.84433,-18.99759 z m 43.28341,-52.87641 c 14.49851,-15.59029 14.96034,-14.54234 -10.57782,-24.00246 -2.14679,-0.79524 -7.21238,-2.82461 -11.25686,-4.50971 -9.93505,-4.13937 -9.88264,-4.15429 -9.43286,2.68617 0.7336,11.15693 3.66122,18.63273 13.12305,33.51028 4.6393,7.29473 3.93842,7.59155 18.14449,-7.68428 z m 317.90498,-53.076 c 58.13332,-27.87385 75.08482,-36.40653 75.09753,-37.80099 0.0199,-2.18238 -7.69533,-20.69964 -9.34647,-22.43238 -2.68844,-2.82132 -152.63711,70.07017 -152.63711,74.19837 0,1.78693 4.91165,16.37704 6.68134,19.84699 2.01302,3.94706 -2.60766,5.895 80.20471,-33.81199 z"
         id="path3435"
         inkscape:connector-curvature="0" />
      <path
         style="fill:#6c6b6b"
         d="m 66.329768,764.04214 c -3.767334,-4.03294 -3.736439,-5.68333 0.580077,-30.98685 4.730713,-27.73155 9.586331,-134.22102 8.338424,-182.87155 l -0.319711,-12.46416 -3.5,-0.93564 c -32.415588,-8.66548 -35.216133,-13.50727 -13,-22.47539 l 16.5,-6.66065 0.340871,-11.5 c 0.470982,-15.88956 -1.927229,-200.98123 -2.707989,-209 l -0.632882,-6.5 -11.25,-5.42986 c -14.438711,-6.96891 -14.20376,-7.44736 8.097634,-16.48962 l 3.847634,-1.56005 -0.585867,-15.76024 C 71.715732,232.74 71.214462,215.5229 70.924026,203.1479 69.52464,143.52245 67.394189,69.308138 66.99859,66.405259 c -0.750699,-5.508577 -0.731159,-5.51324 44.54247,-10.631355 23.31312,-2.635513 46.8875,-5.402945 52.3875,-6.149849 12.77192,-1.734436 12.71885,-2.159355 8.08589,64.751915 -0.25622,3.70045 -0.0606,6.97857 0.4348,7.28472 0.91165,0.56342 1.94673,-2.59251 8.53168,-26.012794 12.44511,-44.262766 35.59318,-64.230725 47.15845,-40.679763 l 2.78918,5.679763 0,27 c 0,42.368244 -1.59018,53.303614 -11.56058,79.500004 -12.5094,32.8674 -19.19386,58.30144 -24.8491,94.54962 -2.1183,13.57757 -2.37949,12.87023 5.72284,15.49828 11.81234,3.83143 24.59251,8.86937 44.35065,17.48301 13.39536,5.83977 10.35754,7.20337 33.53077,-15.05107 10.89298,-10.46109 25.71499,-24.06112 32.93779,-30.22228 15.34997,-13.09376 14.48163,-11.60279 12.67154,-21.75756 -8.94538,-50.18433 11.26448,-91.19998 53.03717,-107.63827 9.61604,-3.78408 11.16689,-4.7397 13.72433,-8.45681 14.94315,-21.719118 45.17066,-35.64852 76.73541,-35.361116 l 15.69918,0.142944 10,-3.98672 c 49.80561,-19.856101 92.2564,1.06331 91.92511,45.299972 -0.21857,29.18601 -34.55846,57.77864 -63.11982,52.55583 -5.30453,-0.97001 -6.30529,-0.41832 -6.30529,3.47588 0,24.92751 -28.28912,55.34653 -63.26098,68.02395 -2.06855,0.74986 -5.80106,2.76698 -8.29447,4.48249 -28.35233,19.50692 -60.72004,19.98956 -80.59447,1.20176 l -3.64992,-3.45036 -5.85008,4.10935 c -22.52162,15.82013 -71.02239,61.91444 -68.10786,64.72855 0.69178,0.66795 8.45778,5.00709 17.25778,9.64253 20.78334,10.94772 32.33722,17.34508 46.64426,25.82685 14.33208,8.49661 12.71002,8.61666 22.87782,-1.69322 10.9422,-11.0951 22.63227,-20.91987 32.56575,-27.36945 5.279,-3.42754 9.40977,-7.09609 12.41217,-11.02328 14.50732,-18.9758 84.92581,-59.82358 161,-93.39155 8.525,-3.76168 21.35,-9.4457 28.5,-12.63116 7.15,-3.18545 16.375,-7.20459 20.5,-8.93142 4.125,-1.72682 9.075,-3.85845 11,-4.73695 1.925,-0.8785 5.975,-2.60573 9,-3.83829 3.025,-1.23257 11.8,-4.81159 19.5,-7.95338 42.64574,-17.40054 90.5387,-33.52813 99.56607,-33.52813 3.40412,0 5.06204,2.15271 7.81064,10.14166 1.04732,3.04407 2.40338,6.395 3.01348,7.44651 0.61009,1.05151 2.67609,5.70351 4.59111,10.33778 l 3.48185,8.42596 -4.73158,4.3539 c -9.56556,8.80206 -44.40915,30.86808 -75.23157,47.64324 -4.675,2.54438 -9.625,5.28858 -11,6.09822 -25.78099,15.18067 -101.08517,54.11948 -120,62.05044 -3.575,1.499 -8.3,3.76081 -10.5,5.02625 -2.2,1.26544 -13.225,6.34636 -24.5,11.29092 -57.97039,25.42246 -81.2845,33.04229 -101.75044,33.25541 -10.11683,0.10534 -14.17327,2.97923 -23.30386,16.51018 -20.17285,29.89487 -19.42507,71.80134 1.72338,96.57961 7.55268,8.849 8.48993,9.33539 20.63895,10.71081 40.21166,4.55246 134.0349,45.96654 251.19197,110.87747 43.98196,24.36823 73.49375,42.83618 86.27601,53.98998 l 6.276,5.47645 -3.40796,6.14261 c -1.87438,3.37843 -5.96441,11.16782 -9.08895,17.30976 -7.80769,15.34766 -15.5505,14.24961 -82.0551,-11.63666 -28.74115,-11.18721 -74.37858,-29.94692 -81.49552,-33.49952 -3.57747,-1.78578 -9.65448,-4.47267 -13.50448,-5.97088 -22.9557,-8.9331 -114.9119,-54.77278 -137.29184,-68.43926 -24.20094,-14.77849 -39.16219,-26.87173 -47.14669,-38.10887 -1.75392,-2.46842 -9.09742,-9.66842 -16.31888,-16 -11.9502,-10.4776 -19.75733,-18.5891 -28.3769,-29.48316 l -3.13431,-3.96137 -18.36569,8.89532 c -31.7185,15.36269 -66.50466,29.68267 -108.86569,44.81536 -10.83887,3.87198 -29.21515,9.09077 -54.45582,15.46521 -9.2157,2.3274 -8.55485,-3.64856 -9.36069,84.647 l -0.68349,74.89034 -4,1.19159 c -12.51566,3.7284 -33.13198,20.87239 -69.500002,57.79437 -21.335309,21.66029 -22.01054,22.0746 -27.09879,16.62761 z M 616.87534,609.07737 c 1.62073,-3.53621 7.1024,-14.63521 12.18149,-24.66445 l 9.2347,-18.23498 -8.18149,-4.39201 c -25.04053,-13.44237 -61.1805,-31.75675 -82.68148,-41.89989 -55.60089,-26.22983 -61.77543,-28.18512 -66.11464,-20.93651 -1.21767,2.0341 -4.12403,6.62337 -6.45858,10.19837 -4.66985,7.15115 -4.81946,7.46454 -9.89526,20.72847 -4.89887,12.8016 -5.4862,11.63247 10.26109,20.42562 22.24892,12.42361 108.7184,54.84591 111.79256,54.84591 0.48737,0 3.14258,1.11814 5.90048,2.48476 19.58055,9.70274 20.16026,9.73769 23.96113,1.44471 z M 205.07845,512.72534 c 24.03794,-5.31674 68.48594,-22.173 114.85011,-43.55523 56.13662,-25.88909 65.01174,-34.65495 73.93239,-73.02221 4.49228,-19.32105 10.88924,-33.34049 19.1783,-42.0307 6.38362,-6.69256 6.32489,-6.35864 1.87805,-10.67736 -3.91687,-3.80401 -6.48874,-9.0974 -6.48874,-13.35505 0,-14.57156 -52.93581,40.14883 -59.55538,61.56311 -0.68006,2.2 -2.16748,6.339 -3.30537,9.19777 l -2.06889,5.19777 2.99675,7.26719 c 1.64821,3.99696 2.86816,7.93486 2.71101,8.7509 -0.184,0.95541 -36.0417,15.74486 -100.70361,41.53504 -115.58751,46.10169 -110.26023,42.82766 -79.57451,48.90487 15.8522,3.13947 22.77422,3.18234 36.14989,0.2239 z M 356.44899,418.8979 c -14.99129,-7.66018 -9.83958,-29.25 6.97957,-29.25 17.13348,0 22.25103,21.44666 6.97957,29.25 -2.42184,1.2375 -5.56265,2.25 -6.97957,2.25 -1.41692,0 -4.55773,-1.0125 -6.97957,-2.25 z m 12.75706,-11.3067 c 4.93445,-3.45622 0.53391,-11.4433 -6.30475,-11.4433 -4.55634,0 -9.24765,8.82509 -6.27274,11.8 1.71684,1.71684 9.95047,1.48334 12.57749,-0.3567 z m 33.03648,79.3067 c 2.02387,-4.50915 4.9605,-7.94127 9.68149,-11.31503 l 2.88964,-2.06503 -5.54204,-6.93497 c -3.04812,-3.81423 -6.78485,-9.25808 -8.30384,-12.09744 -3.17236,-5.92991 -4.05549,-6.30503 -14.88809,-6.32388 -8.70992,-0.0152 -12.73751,1.37952 -17.08335,5.9156 l -2.718,2.83699 5.85499,6.36688 c 3.22025,3.50178 8.01193,8.84188 10.64818,11.86688 3.91767,4.49538 16.35979,16 17.30382,16 0.1373,0 1.10804,-1.9125 2.1572,-4.25 z M 250.42856,437.12357 c 39.875,-16.0556 73.0625,-29.41647 73.75,-29.69082 0.6875,-0.27436 1.25,-0.92706 1.25,-1.45045 0,-1.75326 -85.23951,-42.99457 -86.42341,-41.81412 -0.59212,0.59041 -4.09735,4.98988 -7.78939,9.7766 -43.2235,56.03909 -68.39361,98.36727 -55.43438,93.22311 1.18095,-0.46878 34.77218,-13.98872 74.64718,-30.04432 z m 90.61238,-48.19975 c 3.096,-6.17325 7.84518,-14.50818 10.55373,-18.52208 2.70855,-4.0139 4.65347,-7.73675 4.32204,-8.27301 -1.44339,-2.33545 -35.52978,-21.4418 -64.32544,-36.05616 l -13.33728,-6.76893 -5.25562,5.67213 c -10.15655,10.96147 -26.57301,30.64636 -26.56298,31.85154 0.008,0.93887 85.84045,43.32059 87.73406,43.32059 0.68332,0 3.77549,-5.05084 6.87149,-11.22408 z M 194.12622,372.60031 c 7.69504,-9.92617 14.77329,-19.24153 15.72943,-20.7008 l 1.73845,-2.65321 -12.12861,-6.07989 c -13.2426,-6.63831 -13.66411,-6.67393 -14.59532,-1.23343 -0.34972,2.04321 -1.28206,6.18992 -2.07187,9.21492 -2.76327,10.58339 -5.55714,42.72191 -3.51641,40.45 0.46934,-0.5225 7.14928,-9.07142 14.84433,-18.99759 z m 43.28341,-52.87641 c 14.49851,-15.59029 14.96034,-14.54234 -10.57782,-24.00246 -2.14679,-0.79524 -7.21238,-2.82461 -11.25686,-4.50971 -9.93505,-4.13937 -9.88264,-4.15429 -9.43286,2.68617 0.7336,11.15693 3.66122,18.63273 13.12305,33.51028 4.6393,7.29473 3.93842,7.59155 18.14449,-7.68428 z m 267.51893,2.42909 c 26.44748,-10.69772 78.31782,-34.60067 108,-49.76869 26.56069,-13.5729 30.5,-15.76388 30.5,-16.96361 0,-0.72002 -2.3124,-5.91345 -5.13868,-11.54096 -2.82627,-5.62751 -7.7473,-16.46536 -10.93561,-24.08411 -6.97891,-16.6767 -5.74943,-15.39281 -12.14528,-12.68281 -17.3346,7.34489 -41.02814,18.00673 -52.28043,23.52563 -63.7616,31.27313 -93.77801,47.13113 -94.31318,49.82667 -2.02376,10.19329 19.3844,48.74352 25.60022,46.09899 2.04213,-0.86883 6.86296,-2.85383 10.71296,-4.41111 z"
         id="path3433"
         inkscape:connector-curvature="0" />
      <path
         style="fill:#0ef70e"
         d="m 67.351635,763.22482 c -3.751379,-3.75138 -3.732953,-4.71975 0.561009,-29.48367 4.759659,-27.44968 9.53664,-132.67607 8.334615,-183.59325 l -0.318701,-13.5 -6.5,-1.59163 c -12.027537,-2.94513 -28.372,-10.95871 -26.364914,-12.92654 0.475703,-0.4664 7.570357,-3.5794 15.765899,-6.91777 8.195542,-3.33838 15.508042,-6.5736 16.25,-7.18937 1.06993,-0.88796 1.350246,-6.6283 1.354967,-27.74713 0.0086,-38.69417 -1.903646,-177.83886 -2.611157,-189.9961 l -0.603415,-10.36854 -11.39569,-5.37519 c -6.267629,-2.95636 -11.39569,-5.59654 -11.39569,-5.86707 0,-0.8187 11.154384,-6.12913 16.662727,-7.93286 6.804416,-2.22814 6.460405,0.50565 5.33568,-42.4017 C 69.489822,106.28436 68.339541,66.472318 67.993389,64.884808 67.494628,62.597413 69.654719,61.543948 76.428558,60.771016 143.08145,53.16556 170.36891,49.946395 172.31878,49.458623 l 2.39022,-0.597928 -0.65431,8.893601 c -1.91849,26.077092 -3.62759,68.792144 -2.78615,69.633574 1.29643,1.29644 1.53109,0.74106 5.17167,-12.23997 1.77386,-6.325 4.30794,-15.325004 5.63129,-20.000004 11.02294,-38.940872 30.92077,-59.23817 42.80191,-43.661193 10.54872,13.830091 6.79562,81.741767 -6.36432,115.161197 -11.77737,29.9084 -19.61709,59.64921 -25.04213,95 -2.17147,14.14984 -2.40342,13.64758 7.82862,16.9519 10.33868,3.33876 25.84857,9.5207 44.38435,17.69075 11.80261,5.20225 9.85339,6.11346 31.74863,-14.84167 10.725,-10.26451 25.35,-23.69403 32.5,-29.84339 17.5112,-15.06049 16.80228,-14.14655 15.49561,-19.97716 -11.17853,-49.88087 8.93555,-93.45029 50.91294,-110.28325 10.17966,-4.08206 10.60638,-4.38463 19.40535,-13.75987 20.4097,-21.746382 41.71803,-30.783565 71.66262,-30.393193 l 15.52348,0.202371 10.91585,-4.210024 c 47.86389,-18.460133 87.28576,-0.574791 90.28954,40.963536 2.15056,29.73946 -31.94668,59.66758 -62.58145,54.92951 -5.48064,-0.84765 -7.12394,0.15234 -7.12394,4.33512 0,23.12594 -23.84233,50.47498 -56.30384,64.58497 -6.49211,2.82191 -13.24211,6.22352 -15,7.55912 -1.75789,1.3356 -6.79616,4.08504 -11.19616,6.10987 -28.06601,12.91563 -50.55898,11.39234 -67.69244,-4.58436 -2.32049,-2.16383 -4.47203,-3.93423 -4.78118,-3.93423 -5.76658,0 -77.14842,65.13388 -75.80353,69.16854 0.2101,0.6303 7.7834,5.05739 16.82957,9.83798 21.74202,11.48992 34.79868,18.73309 45.86755,25.44495 5.0054,3.03515 10.82165,6.39639 12.92499,7.46943 l 3.82425,1.95099 8.9154,-9.02946 c 10.43211,-10.56558 24.99207,-22.66167 34.99545,-29.07343 4.41142,-2.82754 8.5025,-6.47579 10.8539,-9.67904 7.19348,-9.79948 32.67053,-28.42687 57.56604,-42.08905 19.33959,-10.6132 84.57182,-43.18811 101,-50.4362 8.525,-3.76122 22.025,-9.72696 30,-13.2572 21.93228,-9.70861 24.38811,-10.77375 39.5,-17.13181 21.96214,-9.2402 48.15612,-19.41646 70,-27.19475 46.03695,-16.39308 52.74892,-17.53155 55.89636,-9.48095 1.07513,2.75 3.61511,8.825 5.64441,13.5 8.72157,20.09238 11.63166,16.90411 -50.09117,54.87951 -3.60271,2.2166 -11.47771,6.69023 -17.5,9.9414 -16.09265,8.68775 -42.37532,23.07161 -54.9496,30.07258 -21.78797,12.13088 -89.87166,45.57087 -117,57.46574 -56.2377,24.65836 -81.04541,32.64077 -101.44082,32.64077 -15.5014,0 -28.33801,18.30026 -36.11757,51.49032 l -3.27925,13.99031 1.68194,9.74958 c 3.5407,20.52422 8.89827,31.99257 20.41154,43.69276 l 5.74416,5.83741 7.5,0.67015 c 22.693,2.02766 37.22271,6.67452 92.5,29.58313 41.12552,17.04368 131.12652,63.12662 194.7607,99.72274 25.42728,14.62327 58.7393,37.73063 58.7393,40.74536 0,1.51905 -15.63791,31.4398 -17.35072,33.19794 -2.78853,2.86233 -49.33202,-12.075 -94.14928,-30.21559 -42.19143,-17.07774 -56.58969,-23.06001 -62,-25.76013 -3.3,-1.64693 -10.5,-4.89964 -16,-7.22824 -20.93833,-8.8649 -34.0894,-14.80148 -36.5,-16.47661 -1.375,-0.95549 -9.025,-4.75553 -17,-8.44453 -15.89755,-7.35375 -68.91484,-34.65224 -73.15437,-37.66704 -1.4599,-1.03816 -2.91367,-1.88756 -3.23058,-1.88756 -0.31692,0 -3.17245,-1.63827 -6.34563,-3.64061 -24.10269,-15.20924 -36.25387,-24.83111 -43.26424,-34.25863 -2.92282,-3.9306 -11.10818,-12.13788 -19.07899,-19.13009 -7.678,-6.73535 -14.7399,-13.24769 -15.6931,-14.47188 -5.97499,-7.67362 -15.56395,-18.49879 -16.38627,-18.49879 -0.53555,0 -9.70321,4.275 -20.3726,9.5 -10.66939,5.225 -19.63194,9.5 -19.91678,9.5 -0.28484,0 -11.43929,4.66348 -24.78767,10.36329 -39.88421,17.03073 -81.14669,31.01787 -115.29653,39.08319 -3.86471,0.91275 -7.67789,2.06197 -8.47373,2.55382 -1.91374,1.18276 -2.81074,33.22555 -2.91906,104.27445 l -0.0804,52.77475 -2.75,0.9922 c -15.36335,5.54309 -30.88418,18.367 -69.250002,57.21703 -21.786739,22.0617 -22.418004,22.47711 -27.076923,17.81819 z M 614.599,614.08838 c 0.44732,-0.79226 3.51639,-7.06548 6.82014,-13.94048 3.30376,-6.875 8.40453,-16.58499 11.33504,-21.57776 6.55421,-11.16652 6.88272,-12.00444 5.2406,-13.36728 -6.69287,-5.55459 -108.16079,-55.51542 -133.15636,-65.56361 -19.63545,-7.89342 -20.12521,-7.89641 -24.05747,-0.14661 -0.88054,1.73539 -3.52906,6.08026 -5.88561,9.65526 -4.70749,7.14149 -4.84807,7.43479 -9.93526,20.72847 -4.89887,12.8016 -5.4862,11.63247 10.26109,20.42562 22.24892,12.42361 108.7184,54.84591 111.79256,54.84591 0.48737,0 3.14258,1.11814 5.90048,2.48476 15.40355,7.63291 20.21189,9.06439 21.68479,6.45572 z M 136.42856,529.28271 c 22.95103,-3.25434 44.5105,-7.8143 62,-13.11337 3.575,-1.08318 9.425,-2.63475 13,-3.44795 3.575,-0.8132 11.675,-3.33895 18,-5.61279 6.325,-2.27384 15.325,-5.41584 20,-6.98222 4.675,-1.56638 11.425,-4.03683 15,-5.48989 47.34115,-19.24177 89.78305,-39.23737 101.26495,-47.70883 15.19259,-11.20923 23.88615,-26.00403 29.44077,-50.10259 4.5366,-19.68191 10.74909,-33.19972 19.39654,-42.20515 6.88822,-7.17336 6.94903,-7.43278 2.53213,-10.80172 -3.85109,-2.93737 -7.63439,-10.21754 -7.63439,-14.69079 0,-16.44869 -54.84148,40.15013 -63.00166,65.02049 -0.99253,3.025 -2.37608,6.90747 -3.07455,8.62771 -1.14576,2.82185 -0.95876,3.89178 1.91225,10.94089 3.93693,9.66626 17.58979,2.84146 -96.83604,48.4065 -54.175,21.57281 -101.2,40.46195 -104.5,41.97587 -3.3,1.51392 -18.93217,7.88178 -34.73814,14.15081 -18.239425,7.23418 -28.742478,11.90372 -28.750004,12.78194 -0.01781,2.07869 37.191364,0.91638 55.988144,-1.74891 z m 219.5,-111.97649 c -12.3612,-7.55765 -7.15658,-26.38909 7.29341,-26.38909 15.10679,0 20.66804,18.49098 7.90226,26.27477 -4.09658,2.49784 -11.20968,2.55136 -15.19567,0.11432 z m 12.34996,-6.16459 c 8.94594,-6.48041 2.31473,-19.20408 -7.82062,-15.00588 -7.5654,3.13369 -7.99719,14.06463 -0.67234,17.02057 3.35869,1.3554 4.07538,1.18538 8.49296,-2.01469 z m 35.66743,75.38121 c 2.10227,-4.2969 3.90084,-6.33917 7.61735,-8.64948 5.15682,-3.20566 5.85443,-4.65963 3.26627,-6.80761 -7.11148,-5.90201 -18.66604,-27.11442 -20.51796,-37.66785 -1.27258,-7.25202 -1.90077,-7.57543 -4.99373,-2.57092 -4.24436,6.86752 -11.69366,15.00812 -17.77277,19.42209 -7.54372,5.47741 -7.53798,6.09302 0.13541,14.5271 3.43858,3.77945 8.24533,9.12173 10.68166,11.87173 13.59184,15.34171 17.93658,17.32951 21.58377,9.87494 z M 249.70553,438.54669 c 78.43327,-31.48856 78.85167,-31.67015 77.0719,-33.44992 -2.08384,-2.08384 -86.35184,-42.88485 -87.58513,-42.4071 -0.69506,0.26925 -2.38874,2.16211 -3.76374,4.20636 -1.375,2.04424 -5.21839,7.0997 -8.54086,11.23434 -3.32247,4.13464 -10.04105,13.14253 -14.93017,20.01753 -4.88913,6.875 -10.53256,14.75 -12.54098,17.5 -3.97622,5.44442 -24.95448,37.64609 -26.8301,41.18426 -1.83269,3.4572 -1.44733,12.31574 0.53575,12.31574 0.19816,0 34.66066,-13.77055 76.58333,-30.60121 z m 92.2563,-48.53697 c 3.2817,-6.67601 8.31038,-15.52447 11.17485,-19.66326 5.99947,-8.66848 6.1157,-8.05294 -2.56256,-13.57158 -13.31508,-8.46727 -69.74183,-38.62698 -72.26843,-38.62698 -2.27931,0 -34.24174,37.40616 -33.6021,39.32509 0.3382,1.0146 88.54068,44.67491 90.25217,44.67491 0.57163,0 3.72437,-5.46218 7.00607,-12.13818 z m -161.66206,2.38818 c 0.51787,-0.9625 7.94944,-10.75 16.5146,-21.75 18.29018,-23.48956 17.99866,-20.47163 2.73599,-28.32431 -14.34462,-7.38035 -14.53519,-7.36525 -16.03903,1.2704 -0.63192,3.62878 -1.626,7.82541 -2.20906,9.32585 -1.20447,3.09956 -4.99754,39.21868 -4.24623,40.43432 0.81514,1.31893 2.24664,0.89692 3.24373,-0.95626 z m 54.05645,-67.46393 c 20.00721,-21.34506 19.121,-18.95644 8.82234,-23.7792 -8.35913,-3.91449 -11.73394,-5.26904 -33.25,-13.34547 -59.20013,-22.22182 -130.511267,-31.91666 -143.922089,-19.56639 -0.526044,0.48444 26.31808,14.28714 62.499999,32.13622 34.88215,17.20788 68.59709,33.84199 74.92209,36.96469 6.325,3.1227 12.02995,5.70608 12.67766,5.74086 0.64772,0.0348 8.86022,-8.13305 18.25,-18.15071 z m 270.57234,-2.78098 c 26.44748,-10.69772 78.31782,-34.60067 108,-49.76869 26.56069,-13.5729 30.5,-15.76388 30.5,-16.96361 0,-0.72002 -2.29601,-5.88446 -5.10225,-11.47654 -2.80624,-5.59208 -6.14062,-13.34641 -7.40975,-17.23184 -2.93988,-9.00048 -9.10486,-22.56441 -10.2558,-22.56441 -0.87359,0 -13.58367,5.61861 -36.7322,16.2378 -40.82497,18.72811 -115.1974,56.81007 -116.23664,59.51827 -0.69458,1.81006 5.22825,19.84135 7.63506,23.24393 0.9726,1.375 3.87223,6.58182 6.44361,11.57071 6.58722,12.78023 7.71805,13.85659 12.44501,11.84549 2.04213,-0.86883 6.86296,-2.85383 10.71296,-4.41111 z"
         id="path3431"
         inkscape:connector-curvature="0" />
      <path
         style="fill:#03ac00"
         d="m 67.351635,763.22482 c -3.751379,-3.75138 -3.732953,-4.71975 0.561009,-29.48367 4.759659,-27.44968 9.53664,-132.67607 8.334615,-183.59325 l -0.318701,-13.5 -6.5,-1.59163 c -12.027537,-2.94513 -28.372,-10.95871 -26.364914,-12.92654 0.475703,-0.4664 7.570357,-3.5794 15.765899,-6.91777 8.195542,-3.33838 15.508042,-6.5736 16.25,-7.18937 1.06993,-0.88796 1.350246,-6.6283 1.354967,-27.74713 0.0086,-38.69417 -1.903646,-177.83886 -2.611157,-189.9961 l -0.603415,-10.36854 -11.39569,-5.37519 c -6.267629,-2.95636 -11.39569,-5.59654 -11.39569,-5.86707 0,-0.8187 11.154384,-6.12913 16.662727,-7.93286 6.804416,-2.22814 6.460405,0.50565 5.33568,-42.4017 C 69.489822,106.28436 68.339541,66.472318 67.993389,64.884808 67.494628,62.597413 69.654719,61.543948 76.428558,60.771016 143.08145,53.16556 170.36891,49.946395 172.31878,49.458623 l 2.39022,-0.597928 -0.65431,8.893601 c -1.91849,26.077092 -3.62759,68.792144 -2.78615,69.633574 1.29643,1.29644 1.53109,0.74106 5.17167,-12.23997 1.77386,-6.325 4.30794,-15.325004 5.63129,-20.000004 11.02294,-38.940872 30.92077,-59.23817 42.80191,-43.661193 10.54872,13.830091 6.79562,81.741767 -6.36432,115.161197 -11.77737,29.9084 -19.61709,59.64921 -25.04213,95 -2.17147,14.14984 -2.40342,13.64758 7.82862,16.9519 10.33868,3.33876 25.84857,9.5207 44.38435,17.69075 11.80261,5.20225 9.85339,6.11346 31.74863,-14.84167 10.725,-10.26451 25.35,-23.69403 32.5,-29.84339 17.5112,-15.06049 16.80228,-14.14655 15.49561,-19.97716 -11.17853,-49.88087 8.93555,-93.45029 50.91294,-110.28325 10.17966,-4.08206 10.60638,-4.38463 19.40535,-13.75987 20.4097,-21.746382 41.71803,-30.783565 71.66262,-30.393193 l 15.52348,0.202371 10.91585,-4.210024 c 47.86389,-18.460133 87.28576,-0.574791 90.28954,40.963536 2.15056,29.73946 -31.94668,59.66758 -62.58145,54.92951 -5.48064,-0.84765 -7.12394,0.15234 -7.12394,4.33512 0,23.12594 -23.84233,50.47498 -56.30384,64.58497 -6.49211,2.82191 -13.24211,6.22352 -15,7.55912 -1.75789,1.3356 -6.79616,4.08504 -11.19616,6.10987 -28.06601,12.91563 -50.55898,11.39234 -67.69244,-4.58436 -2.32049,-2.16383 -4.47203,-3.93423 -4.78118,-3.93423 -5.76658,0 -77.14842,65.13388 -75.80353,69.16854 0.2101,0.6303 7.7834,5.05739 16.82957,9.83798 21.74202,11.48992 34.79868,18.73309 45.86755,25.44495 5.0054,3.03515 10.82165,6.39639 12.92499,7.46943 l 3.82425,1.95099 8.9154,-9.02946 c 10.43211,-10.56558 24.99207,-22.66167 34.99545,-29.07343 4.41142,-2.82754 8.5025,-6.47579 10.8539,-9.67904 7.19348,-9.79948 32.67053,-28.42687 57.56604,-42.08905 19.33959,-10.6132 84.57182,-43.18811 101,-50.4362 8.525,-3.76122 22.025,-9.72696 30,-13.2572 21.93228,-9.70861 24.38811,-10.77375 39.5,-17.13181 21.96214,-9.2402 48.15612,-19.41646 70,-27.19475 46.03695,-16.39308 52.74892,-17.53155 55.89636,-9.48095 1.07513,2.75 3.61511,8.825 5.64441,13.5 8.72157,20.09238 11.63166,16.90411 -50.09117,54.87951 -3.60271,2.2166 -11.47771,6.69023 -17.5,9.9414 -16.09265,8.68775 -42.37532,23.07161 -54.9496,30.07258 -21.78797,12.13088 -89.87166,45.57087 -117,57.46574 -56.2377,24.65836 -81.04541,32.64077 -101.44082,32.64077 -15.5014,0 -28.33801,18.30026 -36.11757,51.49032 l -3.27925,13.99031 1.68194,9.74958 c 3.5407,20.52422 8.89827,31.99257 20.41154,43.69276 l 5.74416,5.83741 7.5,0.67015 c 22.693,2.02766 37.22271,6.67452 92.5,29.58313 41.12552,17.04368 131.12652,63.12662 194.7607,99.72274 25.42728,14.62327 58.7393,37.73063 58.7393,40.74536 0,1.51905 -15.63791,31.4398 -17.35072,33.19794 -2.78853,2.86233 -49.33202,-12.075 -94.14928,-30.21559 -42.19143,-17.07774 -56.58969,-23.06001 -62,-25.76013 -3.3,-1.64693 -10.5,-4.89964 -16,-7.22824 -20.93833,-8.8649 -34.0894,-14.80148 -36.5,-16.47661 -1.375,-0.95549 -9.025,-4.75553 -17,-8.44453 -15.89755,-7.35375 -68.91484,-34.65224 -73.15437,-37.66704 -1.4599,-1.03816 -2.91367,-1.88756 -3.23058,-1.88756 -0.31692,0 -3.17245,-1.63827 -6.34563,-3.64061 -24.10269,-15.20924 -36.25387,-24.83111 -43.26424,-34.25863 -2.92282,-3.9306 -11.10818,-12.13788 -19.07899,-19.13009 -7.678,-6.73535 -14.7399,-13.24769 -15.6931,-14.47188 -5.97499,-7.67362 -15.56395,-18.49879 -16.38627,-18.49879 -0.53555,0 -9.70321,4.275 -20.3726,9.5 -10.66939,5.225 -19.63194,9.5 -19.91678,9.5 -0.28484,0 -11.43929,4.66348 -24.78767,10.36329 -39.88421,17.03073 -81.14669,31.01787 -115.29653,39.08319 -3.86471,0.91275 -7.67789,2.06197 -8.47373,2.55382 -1.91374,1.18276 -2.81074,33.22555 -2.91906,104.27445 l -0.0804,52.77475 -2.75,0.9922 c -15.36335,5.54309 -30.88418,18.367 -69.250002,57.21703 -21.786739,22.0617 -22.418004,22.47711 -27.076923,17.81819 z m 699.801975,-113.44788 2.12357,-4.37096 -3.67431,-3.48195 c -5.20798,-4.93533 -14.389,-11.10275 -31.67431,-21.27748 -8.25,-4.85623 -19.725,-11.71002 -25.5,-15.23064 -11.0183,-6.71709 -31.77984,-18.35248 -50.72942,-28.4303 l -11.22943,-5.97205 -2.77057,4.39236 c -3.65401,5.79294 -8.75726,16.58863 -8.13553,17.21036 0.45662,0.45662 67.39564,33.03101 85.36495,41.54096 4.4,2.08376 15.425,7.41528 24.5,11.84783 19.37909,9.46541 18.9916,9.39813 21.72505,3.77187 z M 614.599,614.08838 c 0.44732,-0.79226 3.51639,-7.06548 6.82014,-13.94048 3.30376,-6.875 8.40453,-16.58499 11.33504,-21.57776 6.55421,-11.16652 6.88272,-12.00444 5.2406,-13.36728 -6.69287,-5.55459 -108.16079,-55.51542 -133.15636,-65.56361 -19.63545,-7.89342 -20.12521,-7.89641 -24.05747,-0.14661 -0.88054,1.73539 -3.52906,6.08026 -5.88561,9.65526 -4.70749,7.14149 -4.84807,7.43479 -9.93526,20.72847 -4.89887,12.8016 -5.4862,11.63247 10.26109,20.42562 22.24892,12.42361 108.7184,54.84591 111.79256,54.84591 0.48737,0 3.14258,1.11814 5.90048,2.48476 15.40355,7.63291 20.21189,9.06439 21.68479,6.45572 z M 136.42856,529.28271 c 22.95103,-3.25434 44.5105,-7.8143 62,-13.11337 3.575,-1.08318 9.425,-2.63475 13,-3.44795 3.575,-0.8132 11.675,-3.33895 18,-5.61279 6.325,-2.27384 15.325,-5.41584 20,-6.98222 4.675,-1.56638 11.425,-4.03683 15,-5.48989 47.34115,-19.24177 89.78305,-39.23737 101.26495,-47.70883 15.19259,-11.20923 23.88615,-26.00403 29.44077,-50.10259 4.5366,-19.68191 10.74909,-33.19972 19.39654,-42.20515 6.88822,-7.17336 6.94903,-7.43278 2.53213,-10.80172 -3.85109,-2.93737 -7.63439,-10.21754 -7.63439,-14.69079 0,-16.44869 -54.84148,40.15013 -63.00166,65.02049 -0.99253,3.025 -2.37608,6.90747 -3.07455,8.62771 -1.14576,2.82185 -0.95876,3.89178 1.91225,10.94089 3.93693,9.66626 17.58979,2.84146 -96.83604,48.4065 -54.175,21.57281 -101.2,40.46195 -104.5,41.97587 -3.3,1.51392 -18.93217,7.88178 -34.73814,14.15081 -18.239425,7.23418 -28.742478,11.90372 -28.750004,12.78194 -0.01781,2.07869 37.191364,0.91638 55.988144,-1.74891 z m 219.5,-111.97649 c -12.3612,-7.55765 -7.15658,-26.38909 7.29341,-26.38909 15.10679,0 20.66804,18.49098 7.90226,26.27477 -4.09658,2.49784 -11.20968,2.55136 -15.19567,0.11432 z m 12.34996,-6.16459 c 8.94594,-6.48041 2.31473,-19.20408 -7.82062,-15.00588 -7.5654,3.13369 -7.99719,14.06463 -0.67234,17.02057 3.35869,1.3554 4.07538,1.18538 8.49296,-2.01469 z m 82.66758,97.48151 c 14.3966,-3.11264 28.29508,-12.99595 24.13118,-17.15986 -14.26524,-14.26524 -64.64872,-11.90146 -64.64872,3.03305 0,11.04857 6.16014,14.73366 27.67,16.55263 0.6435,0.0544 6.42489,-1.0372 12.84754,-2.42582 z m -47.00015,-22.1003 c 2.10227,-4.2969 3.90084,-6.33917 7.61735,-8.64948 5.15682,-3.20566 5.85443,-4.65963 3.26627,-6.80761 -7.11148,-5.90201 -18.66604,-27.11442 -20.51796,-37.66785 -1.27258,-7.25202 -1.90077,-7.57543 -4.99373,-2.57092 -4.24436,6.86752 -11.69366,15.00812 -17.77277,19.42209 -7.54372,5.47741 -7.53798,6.09302 0.13541,14.5271 3.43858,3.77945 8.24533,9.12173 10.68166,11.87173 13.59184,15.34171 17.93658,17.32951 21.58377,9.87494 z M 249.70553,438.54669 c 78.43327,-31.48856 78.85167,-31.67015 77.0719,-33.44992 -2.08384,-2.08384 -86.35184,-42.88485 -87.58513,-42.4071 -0.69506,0.26925 -2.38874,2.16211 -3.76374,4.20636 -1.375,2.04424 -5.21839,7.0997 -8.54086,11.23434 -3.32247,4.13464 -10.04105,13.14253 -14.93017,20.01753 -4.88913,6.875 -10.53256,14.75 -12.54098,17.5 -3.97622,5.44442 -24.95448,37.64609 -26.8301,41.18426 -1.83269,3.4572 -1.44733,12.31574 0.53575,12.31574 0.19816,0 34.66066,-13.77055 76.58333,-30.60121 z m 92.2563,-48.53697 c 3.2817,-6.67601 8.31038,-15.52447 11.17485,-19.66326 5.99947,-8.66848 6.1157,-8.05294 -2.56256,-13.57158 -13.31508,-8.46727 -69.74183,-38.62698 -72.26843,-38.62698 -2.27931,0 -34.24174,37.40616 -33.6021,39.32509 0.3382,1.0146 88.54068,44.67491 90.25217,44.67491 0.57163,0 3.72437,-5.46218 7.00607,-12.13818 z m -161.66206,2.38818 c 0.51787,-0.9625 7.94944,-10.75 16.5146,-21.75 18.29018,-23.48956 17.99866,-20.47163 2.73599,-28.32431 -14.34462,-7.38035 -14.53519,-7.36525 -16.03903,1.2704 -0.63192,3.62878 -1.626,7.82541 -2.20906,9.32585 -1.20447,3.09956 -4.99754,39.21868 -4.24623,40.43432 0.81514,1.31893 2.24664,0.89692 3.24373,-0.95626 z m 54.05645,-67.46393 c 20.00721,-21.34506 19.121,-18.95644 8.82234,-23.7792 -8.35913,-3.91449 -11.73394,-5.26904 -33.25,-13.34547 -59.20013,-22.22182 -130.511267,-31.91666 -143.922089,-19.56639 -0.526044,0.48444 26.31808,14.28714 62.499999,32.13622 34.88215,17.20788 68.59709,33.84199 74.92209,36.96469 6.325,3.1227 12.02995,5.70608 12.67766,5.74086 0.64772,0.0348 8.86022,-8.13305 18.25,-18.15071 z m 199.06751,5.16733 c 12.07049,-3.58587 17.75282,-6.25783 28.23558,-13.27697 9.04875,-6.05895 8.86203,-5.176 3.82222,-18.07462 -2.17087,-5.55599 -4.18175,-10.88931 -4.46862,-11.85181 -0.86114,-2.88928 -1.19697,-2.70882 -19.52318,10.4907 -15.31923,11.03372 -22.8881,20.04423 -23.82585,28.36394 -0.96348,8.54792 0.37848,8.91821 15.75985,4.34876 z m 71.50483,-7.94831 c 26.44748,-10.69772 78.31782,-34.60067 108,-49.76869 26.56069,-13.5729 30.5,-15.76388 30.5,-16.96361 0,-0.72002 -2.29601,-5.88446 -5.10225,-11.47654 -2.80624,-5.59208 -6.14062,-13.34641 -7.40975,-17.23184 -2.93988,-9.00048 -9.10486,-22.56441 -10.2558,-22.56441 -0.87359,0 -13.58367,5.61861 -36.7322,16.2378 -40.82497,18.72811 -115.1974,56.81007 -116.23664,59.51827 -0.69458,1.81006 5.22825,19.84135 7.63506,23.24393 0.9726,1.375 3.87223,6.58182 6.44361,11.57071 6.58722,12.78023 7.71805,13.85659 12.44501,11.84549 2.04213,-0.86883 6.86296,-2.85383 10.71296,-4.41111 z M 655.16394,221.09672 c 29.42512,-12.37629 113.26462,-55.72484 113.26462,-58.56257 0,-2.69749 -4.43614,-10.38625 -5.9925,-10.38625 -7.96335,0 -127.99866,44.65783 -132.71659,49.37576 -0.51679,0.51678 5.5389,16.33311 8.41671,21.98287 1.81103,3.55545 3.36951,3.33489 17.02776,-2.40981 z M 346.05933,192.40571 c 8.43823,-16.88746 33.75595,-34.80796 54.61117,-38.65513 5.83424,-1.07625 6.51796,-12.21756 1.29654,-21.12723 -13.16392,-22.46253 -58.97393,19.11803 -60.34605,54.77455 -0.47819,12.42646 0.29533,13.29923 4.43834,5.00781 z M 489.72155,112.37957 C 485.87637,87.438813 462.43317,81.960888 435.42856,99.693041 l -4.5,2.954859 16.5,0.61165 c 21.25357,0.78787 31.85837,3.74913 38.40302,10.72357 3.5398,3.77224 4.64832,3.31528 3.88997,-1.60355 z m 79.70701,-19.094832 c 0,-4.29059 -16.61966,-14.441645 -27.45331,-16.768098 -13.55278,-2.910367 -34.16101,-0.223731 -30.65825,3.996829 2.30701,2.779781 58.11156,15.044034 58.11156,12.771269 z"
         id="path3429"
         inkscape:connector-curvature="0" />
      <path
         style="fill:#563200"
         d="m 67.351635,763.22482 c -3.751379,-3.75138 -3.732953,-4.71975 0.561009,-29.48367 4.759659,-27.44968 9.53664,-132.67607 8.334615,-183.59325 l -0.318701,-13.5 -6.5,-1.59163 c -12.027537,-2.94513 -28.372,-10.95871 -26.364914,-12.92654 0.475703,-0.4664 7.570357,-3.5794 15.765899,-6.91777 8.195542,-3.33838 15.508042,-6.5736 16.25,-7.18937 1.06993,-0.88796 1.350246,-6.6283 1.354967,-27.74713 0.0086,-38.69417 -1.903646,-177.83886 -2.611157,-189.9961 l -0.603415,-10.36854 -11.39569,-5.37519 c -6.267629,-2.95636 -11.39569,-5.59654 -11.39569,-5.86707 0,-0.8187 11.154384,-6.12913 16.662727,-7.93286 6.804416,-2.22814 6.460405,0.50565 5.33568,-42.4017 C 69.489822,106.28436 68.339541,66.472318 67.993389,64.884808 67.494628,62.597413 69.654719,61.543948 76.428558,60.771016 143.08145,53.16556 170.36891,49.946395 172.31878,49.458623 l 2.39022,-0.597928 -0.65431,8.893601 c -1.91849,26.077092 -3.62759,68.792144 -2.78615,69.633574 1.29643,1.29644 1.53109,0.74106 5.17167,-12.23997 1.77386,-6.325 4.30794,-15.325004 5.63129,-20.000004 11.02294,-38.940872 30.92077,-59.23817 42.80191,-43.661193 10.54872,13.830091 6.79562,81.741767 -6.36432,115.161197 -11.77737,29.9084 -19.61709,59.64921 -25.04213,95 -2.17147,14.14984 -2.40342,13.64758 7.82862,16.9519 10.33868,3.33876 25.84857,9.5207 44.38435,17.69075 11.80261,5.20225 9.85339,6.11346 31.74863,-14.84167 10.725,-10.26451 25.35,-23.69403 32.5,-29.84339 17.5112,-15.06049 16.80228,-14.14655 15.49561,-19.97716 -11.17853,-49.88087 8.93555,-93.45029 50.91294,-110.28325 10.17966,-4.08206 10.60638,-4.38463 19.40535,-13.75987 20.4097,-21.746382 41.71803,-30.783565 71.66262,-30.393193 l 15.52348,0.202371 10.91585,-4.210024 c 47.86389,-18.460133 87.28576,-0.574791 90.28954,40.963536 2.15056,29.73946 -31.94668,59.66758 -62.58145,54.92951 -5.48064,-0.84765 -7.12394,0.15234 -7.12394,4.33512 0,23.12594 -23.84233,50.47498 -56.30384,64.58497 -6.49211,2.82191 -13.24211,6.22352 -15,7.55912 -1.75789,1.3356 -6.79616,4.08504 -11.19616,6.10987 -28.06601,12.91563 -50.55898,11.39234 -67.69244,-4.58436 -2.32049,-2.16383 -4.47203,-3.93423 -4.78118,-3.93423 -5.76658,0 -77.14842,65.13388 -75.80353,69.16854 0.2101,0.6303 7.7834,5.05739 16.82957,9.83798 21.74202,11.48992 34.79868,18.73309 45.86755,25.44495 5.0054,3.03515 10.82165,6.39639 12.92499,7.46943 l 3.82425,1.95099 8.9154,-9.02946 c 10.43211,-10.56558 24.99207,-22.66167 34.99545,-29.07343 4.41142,-2.82754 8.5025,-6.47579 10.8539,-9.67904 7.19348,-9.79948 32.67053,-28.42687 57.56604,-42.08905 19.33959,-10.6132 84.57182,-43.18811 101,-50.4362 8.525,-3.76122 22.025,-9.72696 30,-13.2572 21.93228,-9.70861 24.38811,-10.77375 39.5,-17.13181 21.96214,-9.2402 48.15612,-19.41646 70,-27.19475 46.03695,-16.39308 52.74892,-17.53155 55.89636,-9.48095 1.07513,2.75 3.61511,8.825 5.64441,13.5 8.72157,20.09238 11.63166,16.90411 -50.09117,54.87951 -3.60271,2.2166 -11.47771,6.69023 -17.5,9.9414 -16.09265,8.68775 -42.37532,23.07161 -54.9496,30.07258 -21.78797,12.13088 -89.87166,45.57087 -117,57.46574 -56.2377,24.65836 -81.04541,32.64077 -101.44082,32.64077 -15.5014,0 -28.33801,18.30026 -36.11757,51.49032 l -3.27925,13.99031 1.68194,9.74958 c 3.5407,20.52422 8.89827,31.99257 20.41154,43.69276 l 5.74416,5.83741 7.5,0.67015 c 22.693,2.02766 37.22271,6.67452 92.5,29.58313 41.12552,17.04368 131.12652,63.12662 194.7607,99.72274 25.42728,14.62327 58.7393,37.73063 58.7393,40.74536 0,1.51905 -15.63791,31.4398 -17.35072,33.19794 -2.78853,2.86233 -49.33202,-12.075 -94.14928,-30.21559 -42.19143,-17.07774 -56.58969,-23.06001 -62,-25.76013 -3.3,-1.64693 -10.5,-4.89964 -16,-7.22824 -20.93833,-8.8649 -34.0894,-14.80148 -36.5,-16.47661 -1.375,-0.95549 -9.025,-4.75553 -17,-8.44453 -15.89755,-7.35375 -68.91484,-34.65224 -73.15437,-37.66704 -1.4599,-1.03816 -2.91367,-1.88756 -3.23058,-1.88756 -0.31692,0 -3.17245,-1.63827 -6.34563,-3.64061 -24.10269,-15.20924 -36.25387,-24.83111 -43.26424,-34.25863 -2.92282,-3.9306 -11.10818,-12.13788 -19.07899,-19.13009 -7.678,-6.73535 -14.7399,-13.24769 -15.6931,-14.47188 -5.97499,-7.67362 -15.56395,-18.49879 -16.38627,-18.49879 -0.53555,0 -9.70321,4.275 -20.3726,9.5 -10.66939,5.225 -19.63194,9.5 -19.91678,9.5 -0.28484,0 -11.43929,4.66348 -24.78767,10.36329 -39.88421,17.03073 -81.14669,31.01787 -115.29653,39.08319 -3.86471,0.91275 -7.67789,2.06197 -8.47373,2.55382 -1.91374,1.18276 -2.81074,33.22555 -2.91906,104.27445 l -0.0804,52.77475 -2.75,0.9922 c -15.36335,5.54309 -30.88418,18.367 -69.250002,57.21703 -21.786739,22.0617 -22.418004,22.47711 -27.076923,17.81819 z M 760.52274,662.8979 c 1.71764,-3.4375 3.93099,-7.15 4.91855,-8.25 8.45818,-9.42117 4.78083,-13.52059 -31.50731,-35.12369 -9.35298,-5.56802 -21.05542,-12.58667 -26.00542,-15.59698 -19.49293,-11.85452 -60.54314,-33.97675 -62.00594,-33.41543 -0.55455,0.21281 -3.20865,4.60548 -5.898,9.76151 -2.68934,5.15602 -5.49709,10.08331 -6.23944,10.94952 -1.32089,1.54129 -11.35662,26.21882 -11.35662,27.92557 0,1.19716 19.75235,10.68699 36,17.29585 32.66777,13.28787 42.90665,16.99622 65.5,23.72302 13.2,3.93008 25.125,7.52296 26.5,7.98417 5.70197,1.91259 6.79864,1.34183 10.09418,-5.25354 z M 614.599,614.08838 c 0.44732,-0.79226 3.51639,-7.06548 6.82014,-13.94048 3.30376,-6.875 8.40453,-16.58499 11.33504,-21.57776 6.55421,-11.16652 6.88272,-12.00444 5.2406,-13.36728 -6.69287,-5.55459 -108.16079,-55.51542 -133.15636,-65.56361 -19.63545,-7.89342 -20.12521,-7.89641 -24.05747,-0.14661 -0.88054,1.73539 -3.52906,6.08026 -5.88561,9.65526 -4.70749,7.14149 -4.84807,7.43479 -9.93526,20.72847 -4.89887,12.8016 -5.4862,11.63247 10.26109,20.42562 22.24892,12.42361 108.7184,54.84591 111.79256,54.84591 0.48737,0 3.14258,1.11814 5.90048,2.48476 15.40355,7.63291 20.21189,9.06439 21.68479,6.45572 z M 454.47298,532.51332 c 2.58728,-7.83954 12.02432,-26.21911 16.86073,-32.83793 6.6076,-9.04278 6.76221,-8.67091 -5.15515,-12.3988 -57.94801,-18.12681 -79.36789,5.51493 -32.89469,36.30681 5.30458,3.51467 11.44469,7.76698 13.64469,9.44958 5.15751,3.94457 6.09234,3.88017 7.54442,-0.51966 z m -318.04442,-3.23061 c 22.95103,-3.25434 44.5105,-7.8143 62,-13.11337 3.575,-1.08318 9.425,-2.63475 13,-3.44795 3.575,-0.8132 11.675,-3.33895 18,-5.61279 6.325,-2.27384 15.325,-5.41584 20,-6.98222 4.675,-1.56638 11.425,-4.03683 15,-5.48989 47.34115,-19.24177 89.78305,-39.23737 101.26495,-47.70883 15.19259,-11.20923 23.88615,-26.00403 29.44077,-50.10259 4.5366,-19.68191 10.74909,-33.19972 19.39654,-42.20515 6.88822,-7.17336 6.94903,-7.43278 2.53213,-10.80172 -3.85109,-2.93737 -7.63439,-10.21754 -7.63439,-14.69079 0,-16.44869 -54.84148,40.15013 -63.00166,65.02049 -0.99253,3.025 -2.37608,6.90747 -3.07455,8.62771 -1.14576,2.82185 -0.95876,3.89178 1.91225,10.94089 3.93693,9.66626 17.58979,2.84146 -96.83604,48.4065 -54.175,21.57281 -101.2,40.46195 -104.5,41.97587 -3.3,1.51392 -18.93217,7.88178 -34.73814,14.15081 -18.239425,7.23418 -28.742478,11.90372 -28.750004,12.78194 -0.01781,2.07869 37.191364,0.91638 55.988144,-1.74891 z m 219.5,-111.97649 c -12.3612,-7.55765 -7.15658,-26.38909 7.29341,-26.38909 15.10679,0 20.66804,18.49098 7.90226,26.27477 -4.09658,2.49784 -11.20968,2.55136 -15.19567,0.11432 z m 12.34996,-6.16459 c 8.94594,-6.48041 2.31473,-19.20408 -7.82062,-15.00588 -7.5654,3.13369 -7.99719,14.06463 -0.67234,17.02057 3.35869,1.3554 4.07538,1.18538 8.49296,-2.01469 z m 35.66743,75.38121 c 2.10227,-4.2969 3.90084,-6.33917 7.61735,-8.64948 5.15682,-3.20566 5.85443,-4.65963 3.26627,-6.80761 -7.11148,-5.90201 -18.66604,-27.11442 -20.51796,-37.66785 -1.27258,-7.25202 -1.90077,-7.57543 -4.99373,-2.57092 -4.24436,6.86752 -11.69366,15.00812 -17.77277,19.42209 -7.54372,5.47741 -7.53798,6.09302 0.13541,14.5271 3.43858,3.77945 8.24533,9.12173 10.68166,11.87173 13.59184,15.34171 17.93658,17.32951 21.58377,9.87494 z M 249.70553,438.54669 c 78.43327,-31.48856 78.85167,-31.67015 77.0719,-33.44992 -2.08384,-2.08384 -86.35184,-42.88485 -87.58513,-42.4071 -0.69506,0.26925 -2.38874,2.16211 -3.76374,4.20636 -1.375,2.04424 -5.21839,7.0997 -8.54086,11.23434 -3.32247,4.13464 -10.04105,13.14253 -14.93017,20.01753 -4.88913,6.875 -10.53256,14.75 -12.54098,17.5 -3.97622,5.44442 -24.95448,37.64609 -26.8301,41.18426 -1.83269,3.4572 -1.44733,12.31574 0.53575,12.31574 0.19816,0 34.66066,-13.77055 76.58333,-30.60121 z m 92.2563,-48.53697 c 3.2817,-6.67601 8.31038,-15.52447 11.17485,-19.66326 5.99947,-8.66848 6.1157,-8.05294 -2.56256,-13.57158 -13.31508,-8.46727 -69.74183,-38.62698 -72.26843,-38.62698 -2.27931,0 -34.24174,37.40616 -33.6021,39.32509 0.3382,1.0146 88.54068,44.67491 90.25217,44.67491 0.57163,0 3.72437,-5.46218 7.00607,-12.13818 z m -161.66206,2.38818 c 0.51787,-0.9625 7.94944,-10.75 16.5146,-21.75 18.29018,-23.48956 17.99866,-20.47163 2.73599,-28.32431 -14.34462,-7.38035 -14.53519,-7.36525 -16.03903,1.2704 -0.63192,3.62878 -1.626,7.82541 -2.20906,9.32585 -1.20447,3.09956 -4.99754,39.21868 -4.24623,40.43432 0.81514,1.31893 2.24664,0.89692 3.24373,-0.95626 z m 54.05645,-67.46393 c 20.00721,-21.34506 19.121,-18.95644 8.82234,-23.7792 -8.35913,-3.91449 -11.73394,-5.26904 -33.25,-13.34547 -59.20013,-22.22182 -130.511267,-31.91666 -143.922089,-19.56639 -0.526044,0.48444 26.31808,14.28714 62.499999,32.13622 34.88215,17.20788 68.59709,33.84199 74.92209,36.96469 6.325,3.1227 12.02995,5.70608 12.67766,5.74086 0.64772,0.0348 8.86022,-8.13305 18.25,-18.15071 z m 215.07234,15.73451 c 8.74885,-1.72537 14.8129,-3.3932 24.5,-6.73838 8.00402,-2.76398 8.19517,-3.35691 3.47604,-10.7822 -2.98245,-4.69272 -6.79103,-13.25263 -12.68056,-28.5 -4.40227,-11.39702 -3.96517,-11.08112 -10.02841,-7.24784 -25.68305,16.23723 -38.26707,29.57637 -38.26707,40.56332 0,11.17711 13.8024,16.49107 33,12.7051 z m 55.5,-18.51549 c 26.44748,-10.69772 78.31782,-34.60067 108,-49.76869 26.56069,-13.5729 30.5,-15.76388 30.5,-16.96361 0,-0.72002 -2.29601,-5.88446 -5.10225,-11.47654 -2.80624,-5.59208 -6.14062,-13.34641 -7.40975,-17.23184 -2.93988,-9.00048 -9.10486,-22.56441 -10.2558,-22.56441 -0.87359,0 -13.58367,5.61861 -36.7322,16.2378 -40.82497,18.72811 -115.1974,56.81007 -116.23664,59.51827 -0.69458,1.81006 5.22825,19.84135 7.63506,23.24393 0.9726,1.375 3.87223,6.58182 6.44361,11.57071 6.58722,12.78023 7.71805,13.85659 12.44501,11.84549 2.04213,-0.86883 6.86296,-2.85383 10.71296,-4.41111 z m 159.92163,-77.38347 c 6.0931,-3.50811 17.60337,-9.86282 25.57837,-14.12158 40.48709,-21.62068 84,-49.40004 84,-53.62699 0,-6.09596 -9.08615,-25.87305 -11.8868,-25.87305 -8.61711,0 -127.16174,44.21817 -133.05477,49.63057 -2.07408,1.90492 6.15791,21.35061 18.67718,44.11943 4.18938,7.61923 3.21648,7.62671 16.68602,-0.12838 z m -317.80556,-50.8521 c 8.77759,-17.42997 28.32527,-31.93642 50.84253,-37.73056 9.7608,-2.51165 11.75213,-13.00777 4.60573,-24.27647 -16.79014,-26.4753 -71.69426,32.43311 -62.43404,66.98751 1.06745,3.9832 3.25835,2.42121 6.98578,-4.98048 z m 143.79883,-80.41955 c -0.37719,-26.371643 -24.09965,-33.305503 -54.64793,-15.973091 -10.9637,6.220561 -10.16969,6.915051 8.23303,7.201051 22.85026,0.35513 34.79186,3.69128 41.30946,11.54074 4.16779,5.01948 5.20876,4.45495 5.10544,-2.7687 z m 80.5851,-18.742261 c 0,-9.153185 -28.06076,-21.527966 -45.69568,-20.151771 -26.86009,2.096111 -23.0622,7.262343 10.69568,14.549223 10.725,2.315068 21.975,4.786131 25,5.49125 7.49899,1.747995 10,1.775831 10,0.111298 z"
         id="path3427"
         inkscape:connector-curvature="0" />
      <path
         style="fill:#007900"
         d="m 70.428558,765.43846 c -6.461096,-2.3757 -6.775011,-6.0961 -2.513626,-29.79056 4.874147,-27.10158 7.393344,-75.15937 7.758182,-148 l 0.255444,-51 -4.5,-1.28473 C 40.479434,526.52736 38.913792,523.75666 60.002471,515.14258 l 15.926087,-6.50533 0.330238,-26.99467 C 76.634174,450.958 74.579135,284.58273 73.791209,281.86764 c -0.301257,-1.0381 -5.070268,-4.06399 -11.439643,-7.25835 -6.007654,-3.01295 -10.923008,-5.72853 -10.923008,-6.03461 0,-0.80816 16.522288,-8.42678 18.274908,-8.42678 4.436507,0 4.433654,2.2418 0.184547,-145 -0.801531,-27.775004 -1.457808,-51.02295 -1.458392,-51.662106 -5.85e-4,-0.639156 1.686437,-1.434173 3.748937,-1.766704 3.067909,-0.494629 77.669002,-9.167019 97.090602,-11.286799 l 5.34061,-0.582903 -0.61773,5.399254 c -0.73447,6.419669 -3.56348,60.938598 -3.56348,68.673178 0,9.51841 2.24735,5.46338 7.6784,-13.85461 13.07968,-46.523806 25.66204,-66.597453 39.42157,-62.892395 17.58722,4.735745 17.92487,74.938125 0.57519,119.588485 -12.12993,31.21703 -19.87435,60.85057 -25.17569,96.33313 -1.91942,12.84689 -2.11851,12.36181 6.17868,15.05445 11.66116,3.78433 35.29917,13.15707 49.52638,19.63777 9.37106,4.26865 6.22643,6.0634 30.95131,-17.66497 11.18929,-10.73832 26.30666,-24.60857 33.59416,-30.82278 7.2875,-6.21421 13.25,-11.64252 13.25,-12.06291 0,-0.42039 -0.67235,-5.22514 -1.4941,-10.67722 -7.65473,-50.78649 11.08691,-88.9756 51.4941,-104.9275 9.1155,-3.59861 9.90473,-4.1646 19.5,-13.98425 21.6587,-22.165194 39.26094,-29.711535 70,-30.010036 l 18,-0.174795 9.42735,-3.741198 c 42.53777,-16.880909 74.56363,-6.952095 87.47851,27.120509 12.33382,32.53966 -15.56863,67.65058 -53.90586,67.83216 l -12,0.0568 -0.61249,4.9577 c -3.32452,26.9099 -42.24104,67.45774 -64.74374,67.45774 -0.46403,0 -2.67581,1.32718 -4.91506,2.94929 -27.37513,19.83044 -59.28793,21.16045 -79.19817,3.30071 -7.11628,-6.38339 -10.97285,-4.01689 -48.6351,29.8438 -35.37513,31.80444 -36.79771,34.67294 -21.14114,42.62894 14.48819,7.36228 29.81989,15.86446 49.83584,27.63644 8.02457,4.7195 15.32961,8.86466 16.2334,9.21148 1.18096,0.45318 3.82827,-1.69825 9.40986,-7.64726 8.30112,-8.84755 28.22755,-25.28325 37.26999,-30.74099 3.42087,-2.06473 7.00717,-5.41216 9.49661,-8.86406 13.23542,-18.35249 89.87001,-62.61803 165,-95.307 6.6,-2.87165 16.5,-7.25529 22,-9.74141 5.5,-2.48613 12.475,-5.54634 15.5,-6.80047 3.025,-1.25413 9.325,-3.94039 14,-5.96947 25.50609,-11.07036 56.33217,-23.24652 81,-31.99464 5.225,-1.85298 13.325,-4.74164 18,-6.41924 7.6582,-2.74811 23.28084,-6.90445 31.71562,-8.4378 3.82306,-0.695 5.3682,1.02651 7.90441,8.80664 0.90453,2.77477 1.99353,5.49504 2.41998,6.04504 0.42646,0.55 2.47122,5.24265 4.54392,10.42812 l 3.76855,9.42812 -3.92624,3.40467 c -4.82733,4.18607 -17.55321,13.22585 -26.92624,19.12695 -13.41512,8.44593 -36.59707,22.13235 -42.73976,25.23317 -3.40244,1.71755 -8.0029,4.28204 -10.22325,5.69887 -2.22034,1.41683 -6.73699,3.9813 -10.03699,5.69882 -10.42645,5.42657 -41.94783,22.60976 -42.99554,23.43808 -2.2025,1.74129 -54.8042,28.11292 -66.714,33.44676 -6.99025,3.13061 -14.64025,6.75981 -17,8.0649 -2.35975,1.3051 -13.51546,6.4023 -24.79046,11.32713 -58.58543,25.58963 -82.21638,33.20441 -103.04329,33.20441 -20.13909,0 -42.08526,46.58295 -36.51181,77.5 4.03114,22.36155 18.54658,46.43268 28.87356,47.88137 1.74985,0.24548 7.45654,0.9237 12.68154,1.50716 40.61298,4.53514 159.38529,59.20054 281.78069,129.69061 24.07876,13.86746 56.03344,36.20884 56.16251,39.26649 0.0312,0.7401 -0.78357,2.5401 -1.81068,4 -1.02712,1.4599 -4.8969,8.61687 -8.5995,15.90437 -5.20038,10.23543 -7.18006,13.25 -8.7013,13.25 -7.62374,0 -55.65994,-15.8516 -86.33172,-28.48886 -7.15,-2.94591 -20.65,-8.39781 -30,-12.11533 -9.35,-3.71752 -21.5,-8.75724 -27,-11.19938 -5.5,-2.44213 -15.175,-6.66776 -21.5,-9.39028 -21.56232,-9.28125 -29.50582,-13.02184 -67,-31.55026 -75.45343,-37.28667 -103.61153,-55.02402 -119,-74.96044 -3.025,-3.91901 -10.45,-11.36807 -16.5,-16.55345 -11.66281,-9.99606 -20.3153,-18.81472 -27.55419,-28.08335 -5.58118,-7.1461 -4.14969,-7.34322 -27.03994,3.72336 -10.67323,5.16011 -25.48087,11.86856 -32.90587,14.90767 -7.425,3.03911 -16.89412,7.07405 -21.0425,8.96653 -24.12972,11.00796 -75.37434,27.8381 -108.72838,35.7094 -8.0395,1.89726 -7.5085,-3.53606 -8.03324,82.19734 l -0.46927,76.66875 -5.69622,2.07695 c -11.73204,4.27771 -27.73631,17.80761 -65.422298,55.30753 -12.040548,11.9811 -22.165548,21.74829 -22.5,21.70487 -0.334452,-0.0434 -1.283094,-0.32714 -2.108094,-0.63049 z m 59.000002,-67.45162 c 5.225,-4.20011 13.55,-10.09843 18.5,-13.10738 l 9,-5.47083 0.0304,-38.88037 c 0.0167,-21.3842 0.17454,-54.09753 0.35073,-72.69629 0.37043,-39.10242 1.372,-35.18767 -8.52341,-33.31477 -15.1675,2.87073 -38.4581,4.8789 -51.060316,4.40255 -14.93216,-0.56443 -13.289404,-5.06864 -13.333997,36.55994 -0.05491,51.25587 -3.301766,127.5351 -6.434545,151.16821 -1.385241,10.45 -2.520922,20.00767 -2.523737,21.23926 -0.0039,1.71664 5.187718,-2.95394 22.244873,-20.01226 12.237502,-12.23833 26.525002,-25.68796 31.750002,-29.88806 z M 760.52274,662.8979 c 1.71764,-3.4375 3.93099,-7.15 4.91855,-8.25 8.45818,-9.42117 4.78083,-13.52059 -31.50731,-35.12369 -9.35298,-5.56802 -21.05542,-12.58667 -26.00542,-15.59698 -19.49293,-11.85452 -60.54314,-33.97675 -62.00594,-33.41543 -0.55455,0.21281 -3.20865,4.60548 -5.898,9.76151 -2.68934,5.15602 -5.49709,10.08331 -6.23944,10.94952 -1.32089,1.54129 -11.35662,26.21882 -11.35662,27.92557 0,1.19716 19.75235,10.68699 36,17.29585 32.66777,13.28787 42.90665,16.99622 65.5,23.72302 13.2,3.93008 25.125,7.52296 26.5,7.98417 5.70197,1.91259 6.79864,1.34183 10.09418,-5.25354 z m -140.72905,-56.5 c 2.61397,-5.9125 8.10116,-16.89877 12.19377,-24.41393 9.96797,-18.30396 10.98699,-15.51739 -9.5589,-26.13934 -7.975,-4.12297 -21.925,-11.37395 -31,-16.11331 -27.93675,-14.58976 -74.60786,-36.45443 -91.83578,-43.0236 -12.72514,-4.85221 -15.37412,-4.75519 -18.84404,0.69018 -1.48951,2.3375 -4.7053,7.32487 -7.1462,11.08305 -2.44089,3.75817 -5.68502,10.05817 -7.20916,14 -1.52414,3.94182 -3.71474,9.53428 -4.86799,12.42768 -1.15326,2.8934 -2.09683,5.87836 -2.09683,6.63325 0,2.41391 44.37814,26.24741 80.54621,43.25774 6.02458,2.83344 18.15379,8.54705 26.95379,12.69691 49.69466,23.43475 46.6653,22.92467 52.86513,8.90137 z M 454.47298,532.51332 c 2.58728,-7.83954 12.02432,-26.21911 16.86073,-32.83793 6.6076,-9.04278 6.76221,-8.67091 -5.15515,-12.3988 -57.94801,-18.12681 -79.36789,5.51493 -32.89469,36.30681 5.30458,3.51467 11.44469,7.76698 13.64469,9.44958 5.15751,3.94457 6.09234,3.88017 7.54442,-0.51966 z m -321.54442,-2.30577 c 21.09717,-2.7735 30.49364,-4.53871 48.38003,-9.08862 30.88401,-7.85623 37.79177,-9.81772 49.11997,-13.9478 6.325,-2.306 14.65,-5.24477 18.5,-6.53061 13.43803,-4.48809 47.55997,-18.45271 58.01131,-23.74149 2.74378,-1.38846 10.83869,-5.10753 17.98869,-8.2646 49.64578,-21.92101 62.27148,-34.71292 70.55764,-71.48653 4.74945,-21.07781 11.77399,-35.89235 21.31192,-44.94617 4.58265,-4.35004 4.54797,-5.5766 -0.27434,-9.70432 -3.90037,-3.33858 -7.09522,-10.10525 -7.09522,-15.02765 0,-15.98305 -54.69664,42.02327 -63.81173,67.67296 -3.62498,10.20061 -3.65966,11.25416 -0.6251,18.98874 3.49824,8.91643 15.92475,2.78664 -97.06317,47.87963 -178.473606,71.22804 -172.113422,68.53713 -166.309019,70.36325 3.940194,1.23962 35.552259,-0.0954 51.309019,-2.16679 z M 356.64092,417.15798 c -12.7846,-5.80245 -7.67017,-25.99395 6.5873,-26.00634 8.53489,-0.007 14.19286,5.57218 14.19286,13.99626 0,11.07167 -10.04994,16.88012 -20.78016,12.01008 z m 13.32782,-6.05202 c 8.60355,-8.98017 -2.88232,-21.43116 -12.38994,-13.43103 -3.79306,3.19166 -4.7857,7.34345 -2.71369,11.35028 3.15273,6.0967 10.31127,7.0829 15.10363,2.08075 z M 72.211802,524.76939 c 3.264063,-1.64596 234.070878,-94.63235 263.966758,-106.34571 1.60189,-0.62763 1.59249,-2.42514 -0.0242,-4.63616 -1.19427,-1.63326 -1.71208,-1.55783 -8.25,1.2018 -3.83671,1.61945 -49.2758,19.92665 -100.9758,40.68268 -157.798819,63.35157 -168.571982,67.73686 -167.954019,68.36678 0.629262,0.64144 6.398495,2.90301 7.737261,3.03304 0.430784,0.0418 2.905784,-0.99425 5.5,-2.30243 z m 68.926708,-43.99811 c 0.24575,-0.24575 -0.73818,-3.73189 -2.1865,-7.74699 -3.50242,-9.70952 -2.04638,-13.56761 17.50241,-46.37639 l 7.74593,-13 2.72652,-26.30425 c 2.86605,-27.65039 2.86152,-27.99387 -0.34692,-26.27677 -15.18283,8.1256 -31.33996,-10.85122 -33.67299,-39.54949 -0.39658,-4.87822 -1.07793,-9.54449 -1.51411,-10.36949 -1.02012,-1.92946 -46.642637,-24.65499 -47.591373,-23.70625 -0.855977,0.85597 1.14791,213.12192 2.02537,214.54168 0.496893,0.80399 53.698443,-19.59883 55.311663,-21.21205 z m 263.00898,6.38349 c 1.75694,-3.47029 4.43819,-6.73474 7.28107,-8.86478 5.94235,-4.45233 5.93781,-4.53069 -0.73573,-12.68786 -3.17035,-3.87517 -7.66004,-11.07517 -9.97709,-16 -3.79846,-8.07352 -5.1127,-12.08075 -6.7903,-20.70423 -0.78049,-4.01197 -1.63262,-3.49823 -6.8409,4.12436 -4.55509,6.66661 -11.01404,13.31513 -19.18729,19.75043 l -3.96869,3.12479 3.45817,4.37521 c 10.05278,12.71859 31.03756,33.39274 33.15214,32.66142 0.45515,-0.15742 2.07903,-2.75812 3.60862,-5.77934 z M 155.19062,472.081 c 2.37337,-0.82736 3.90096,-2.67965 6.80384,-8.25 17.56808,-33.71157 58.98119,-94.64849 79.85123,-117.49634 2.85697,-3.12772 8.53094,-9.73676 12.60883,-14.68676 29.34571,-35.6217 81.78739,-83.37064 120.26159,-109.5 6.12367,-4.15883 6.02824,-8 -0.19876,-8 -4.72027,0 -11.11151,4.06319 -30.58879,19.44665 -23.9696,18.93156 -31.1321,24.88188 -44.5,36.96883 -45.41262,41.06107 -64.62345,61.31692 -93.35563,98.43397 -24.73183,31.94929 -41.55318,58.43076 -56.8876,89.5569 -4.21723,8.56021 -4.33464,11.52914 -0.52851,13.36346 2.93847,1.41615 2.93975,1.41618 6.5338,0.16329 z m 79.90936,-27.37868 c 90.86149,-36.5151 91.77722,-36.89872 92.09818,-38.5817 0.27492,-1.44158 -84.35225,-44.03721 -87.39776,-43.99015 -1.43,0.0221 -19.67991,23.88471 -39.01766,51.01743 -25.11153,35.23387 -35.42998,56 -27.82577,56 0.72293,0 28.68729,-11.00051 62.14301,-24.44558 z m 106.1337,-52.83628 c 2.66747,-5.65502 7.66242,-14.46462 11.0999,-19.57688 3.43747,-5.11226 6.0465,-9.82522 5.79783,-10.47325 -1.25497,-3.27038 -75.27478,-43.66801 -80.01208,-43.66801 -3.27198,0 -34.5379,37.45264 -33.1103,39.66197 1.10571,1.71118 87.17685,44.24306 89.64712,44.29895 1.22436,0.0277 3.14034,-2.95594 6.57753,-10.24278 z M 181.56985,390.8979 c 1.25261,-1.7875 5.46833,-7.3 9.36827,-12.25 25.91149,-32.88817 24.84708,-28.80195 9.50582,-36.49229 -13.18096,-6.60741 -15.75872,-7.1984 -16.39026,-3.75771 -0.22715,1.2375 -1.35801,6.525 -2.51304,11.75 -1.7529,7.92958 -5.11208,35.62012 -5.11208,42.1401 0,2.90162 2.63262,2.18981 5.14129,-1.3901 z m -14.535,-38.14718 c 5.7448,-2.67496 8.89626,-7.62007 9.97414,-15.65089 l 0.59753,-4.45193 -17.59634,-8.75 c -21.33156,-10.60739 -19.58162,-10.58975 -19.58162,-0.19741 0,25.59208 10.17464,36.70131 26.60629,29.05023 z m 62.8838,-22.35282 c 16.11555,-16.7754 21.50991,-22.96538 21.50991,-24.68242 0,-1.09615 -19.23145,-10.56758 -21.45714,-10.56758 -0.39537,0 -4.38966,-1.61396 -8.87619,-3.58657 -51.29843,-22.5546 -125.820684,-34.95459 -152.467729,-25.36958 -5.94197,2.13734 -3.498907,3.52067 72.296029,40.93585 88.52273,43.6981 73.21582,39.69567 88.99512,23.2703 z m 219.50991,10.27058 c 8.74885,-1.72537 14.8129,-3.3932 24.5,-6.73838 8.00402,-2.76398 8.19517,-3.35691 3.47604,-10.7822 -2.98245,-4.69272 -6.79103,-13.25263 -12.68056,-28.5 -4.40227,-11.39702 -3.96517,-11.08112 -10.02841,-7.24784 -25.68305,16.23723 -38.26707,29.57637 -38.26707,40.56332 0,11.17711 13.8024,16.49107 33,12.7051 z m 64.21338,-20.63134 c 30.92095,-13.2343 77.73207,-34.78354 92.21481,-42.45059 1.6105,-0.85259 10.99668,-5.66512 20.85817,-10.69451 21.39412,-10.91107 20.25946,-8.80098 12.86983,-23.93373 -3.30628,-6.77073 -8.33071,-17.93541 -11.1654,-24.81041 -6.92864,-16.80406 -5.66656,-16.06104 -18.10965,-10.6616 -23.68997,10.2798 -42.88923,19.25243 -68.88114,32.19111 -15.125,7.52917 -30.65,15.20597 -34.5,17.05957 -13.75106,6.62048 -37.98549,20.08605 -39.55664,21.97916 -3.4748,4.18688 17.72967,50.43176 23.12426,50.43176 1.02253,0 11.43812,-4.09984 23.14576,-9.11076 z M 183.43152,267.8979 c 0.0117,-8.88808 18.99529,-84.20049 26.60401,-105.54437 13.54004,-37.98235 14.81673,-116.114518 1.70072,-104.082148 -3.42898,3.145682 -10.84945,14.591495 -13.83172,21.334943 -3.34515,7.563966 -18.20211,59.445135 -26.42573,92.279825 -7.52461,30.0437 -15.1132,56.42699 -17.00004,59.10408 -2.34149,3.32216 -8.55864,29.04923 -7.31944,30.28843 0.49191,0.49191 5.81622,2.01533 11.83181,3.38539 6.01559,1.37005 12.96243,3.13429 15.43743,3.92053 6.79724,2.1593 8.99944,1.99133 9.00296,-0.68668 z m -44.52812,-18 c 2.29682,-12.01452 8.29311,-31.76435 13.28303,-43.75 l 3.95507,-9.5 3.7401,-67.35344 c 2.05705,-37.044385 3.35914,-67.700767 2.89353,-68.12529 -0.88149,-0.803701 -82.743728,9.033803 -83.771266,10.066914 -0.848918,0.853522 3.02403,183.844486 3.909759,184.730216 0.177623,0.17762 8.353647,0.49818 18.168947,0.71234 9.81529,0.21417 19.64599,0.80562 21.84599,1.31433 2.2,0.50871 6.29646,0.97668 9.10325,1.03993 l 5.10325,0.115 1.76834,-9.25 z m 525.94679,-5.12838 c 6.0931,-3.50811 17.60337,-9.86282 25.57837,-14.12158 40.48709,-21.62068 84,-49.40004 84,-53.62699 0,-6.09596 -9.08615,-25.87305 -11.8868,-25.87305 -8.61711,0 -127.16174,44.21817 -133.05477,49.63057 -2.07408,1.90492 6.15791,21.35061 18.67718,44.11943 4.18938,7.61923 3.21648,7.62671 16.68602,-0.12838 z M 347.48153,193.16297 c 9.1092,-17.50904 38.51701,-37.93314 54.72178,-38.00499 2.59344,-0.0115 3.6125,-2.08937 4.56673,-9.31164 0.45308,-3.42929 0.31365,-4.60333 -0.48789,-4.10796 -0.77079,0.47638 -0.97785,-0.29047 -0.66113,-2.44844 0.25363,-1.72812 0.11942,-3.14204 -0.29827,-3.14204 -0.84695,0 -2.41521,-4.03859 -2.06754,-5.32433 0.1226,-0.45339 -0.23825,-0.53933 -0.80187,-0.19099 -0.56363,0.34834 -1.03479,0.26929 -1.04702,-0.17567 -0.0122,-0.44496 -0.95128,-1.93401 -2.08677,-3.30901 -1.1355,-1.375 -1.7534,-1.90428 -1.37312,-1.17618 0.80433,1.54002 -3.41081,-0.51442 -4.76787,-2.32382 -0.47458,-0.63278 -1.08016,-0.48746 -1.64908,0.39571 -0.49449,0.76765 -1.61949,1.11927 -2.5,0.78139 -0.8805,-0.33788 -1.60092,-0.17846 -1.60092,0.35428 0,0.53274 -0.6423,0.96862 -1.42734,0.96862 -17.27897,0 -46.60104,39.63318 -46.55901,62.9315 0.0264,14.63755 2.02135,15.65087 8.03932,4.08357 z m 143.36193,-79.6651 c -0.37719,-26.371643 -24.09965,-33.305503 -54.64793,-15.973091 -10.9637,6.220561 -10.16969,6.915051 8.23303,7.201051 22.85026,0.35513 34.79186,3.69128 41.30946,11.54074 4.16779,5.01948 5.20876,4.45495 5.10544,-2.7687 z m 80.35382,-19.873727 c -0.19711,-2.381657 -4.59519,-7.646958 -6.42526,-7.692201 -1.61095,-0.03982 -4.32649,-2.467679 -3.5871,-3.207074 0.409,-0.409001 0.29364,-0.652849 -0.25636,-0.541884 -2.14072,0.431899 -3.58884,-0.08233 -2.98469,-1.059865 0.34834,-0.563627 0.2624,-0.92447 -0.19098,-0.801875 -1.39338,0.376775 -5.32433,-1.254389 -5.32433,-2.209351 0,-0.495675 -0.675,-0.642206 -1.5,-0.325623 -0.825,0.316582 -1.5,0.09158 -1.5,-0.5 0,-0.591583 -0.675,-0.816583 -1.5,-0.5 -0.825,0.316582 -1.5,0.119587 -1.5,-0.437766 0,-0.557353 -0.9,-0.778013 -2,-0.490357 -1.1,0.287656 -2,0.03178 -2,-0.56862 0,-0.67959 -1.13236,-0.865158 -3,-0.491631 -1.65,0.33 -3,0.190273 -3,-0.310505 0,-1.148888 -17.65396,0.397761 -23.34384,2.045134 -10.85748,3.143533 -4.40879,6.629933 23.34384,12.620536 10.725,2.315068 21.975,4.786131 25,5.49125 8.77445,2.045301 10.01174,1.916089 9.76872,-1.020168 z"
         id="path3425"
         inkscape:connector-curvature="0" />
      <path
         style="fill:#0e0d09"
         d="m 70.428558,765.43846 c -6.461096,-2.3757 -6.775011,-6.0961 -2.513626,-29.79056 4.874147,-27.10158 7.393344,-75.15937 7.758182,-148 l 0.255444,-51 -4.5,-1.28473 C 40.479434,526.52736 38.913792,523.75666 60.002471,515.14258 l 15.926087,-6.50533 0.330238,-26.99467 C 76.634174,450.958 74.579135,284.58273 73.791209,281.86764 c -0.301257,-1.0381 -5.070268,-4.06399 -11.439643,-7.25835 -6.007654,-3.01295 -10.923008,-5.72853 -10.923008,-6.03461 0,-0.80816 16.522288,-8.42678 18.274908,-8.42678 4.436507,0 4.433654,2.2418 0.184547,-145 -0.801531,-27.775004 -1.457808,-51.02295 -1.458392,-51.662106 -5.85e-4,-0.639156 1.686437,-1.434173 3.748937,-1.766704 3.067909,-0.494629 77.669002,-9.167019 97.090602,-11.286799 l 5.34061,-0.582903 -0.61773,5.399254 c -0.73447,6.419669 -3.56348,60.938598 -3.56348,68.673178 0,9.51841 2.24735,5.46338 7.6784,-13.85461 13.07968,-46.523806 25.66204,-66.597453 39.42157,-62.892395 17.58722,4.735745 17.92487,74.938125 0.57519,119.588485 -12.12993,31.21703 -19.87435,60.85057 -25.17569,96.33313 -1.91942,12.84689 -2.11851,12.36181 6.17868,15.05445 11.66116,3.78433 35.29917,13.15707 49.52638,19.63777 9.37106,4.26865 6.22643,6.0634 30.95131,-17.66497 11.18929,-10.73832 26.30666,-24.60857 33.59416,-30.82278 7.2875,-6.21421 13.25,-11.64252 13.25,-12.06291 0,-0.42039 -0.67235,-5.22514 -1.4941,-10.67722 -7.65473,-50.78649 11.08691,-88.9756 51.4941,-104.9275 9.1155,-3.59861 9.90473,-4.1646 19.5,-13.98425 21.6587,-22.165194 39.26094,-29.711535 70,-30.010036 l 18,-0.174795 9.42735,-3.741198 c 42.53777,-16.880909 74.56363,-6.952095 87.47851,27.120509 12.33382,32.53966 -15.56863,67.65058 -53.90586,67.83216 l -12,0.0568 -0.61249,4.9577 c -3.32452,26.9099 -42.24104,67.45774 -64.74374,67.45774 -0.46403,0 -2.67581,1.32718 -4.91506,2.94929 -27.37513,19.83044 -59.28793,21.16045 -79.19817,3.30071 -7.11628,-6.38339 -10.97285,-4.01689 -48.6351,29.8438 -35.37513,31.80444 -36.79771,34.67294 -21.14114,42.62894 14.48819,7.36228 29.81989,15.86446 49.83584,27.63644 8.02457,4.7195 15.32961,8.86466 16.2334,9.21148 1.18096,0.45318 3.82827,-1.69825 9.40986,-7.64726 8.30112,-8.84755 28.22755,-25.28325 37.26999,-30.74099 3.42087,-2.06473 7.00717,-5.41216 9.49661,-8.86406 13.23542,-18.35249 89.87001,-62.61803 165,-95.307 6.6,-2.87165 16.5,-7.25529 22,-9.74141 5.5,-2.48613 12.475,-5.54634 15.5,-6.80047 3.025,-1.25413 9.325,-3.94039 14,-5.96947 25.50609,-11.07036 56.33217,-23.24652 81,-31.99464 5.225,-1.85298 13.325,-4.74164 18,-6.41924 7.6582,-2.74811 23.28084,-6.90445 31.71562,-8.4378 3.82306,-0.695 5.3682,1.02651 7.90441,8.80664 0.90453,2.77477 1.99353,5.49504 2.41998,6.04504 0.42646,0.55 2.47122,5.24265 4.54392,10.42812 l 3.76855,9.42812 -3.92624,3.40467 c -4.82733,4.18607 -17.55321,13.22585 -26.92624,19.12695 -13.41512,8.44593 -36.59707,22.13235 -42.73976,25.23317 -3.40244,1.71755 -8.0029,4.28204 -10.22325,5.69887 -2.22034,1.41683 -6.73699,3.9813 -10.03699,5.69882 -10.42645,5.42657 -41.94783,22.60976 -42.99554,23.43808 -2.2025,1.74129 -54.8042,28.11292 -66.714,33.44676 -6.99025,3.13061 -14.64025,6.75981 -17,8.0649 -2.35975,1.3051 -13.51546,6.4023 -24.79046,11.32713 -58.58543,25.58963 -82.21638,33.20441 -103.04329,33.20441 -20.13909,0 -42.08526,46.58295 -36.51181,77.5 4.03114,22.36155 18.54658,46.43268 28.87356,47.88137 1.74985,0.24548 7.45654,0.9237 12.68154,1.50716 40.61298,4.53514 159.38529,59.20054 281.78069,129.69061 24.07876,13.86746 56.03344,36.20884 56.16251,39.26649 0.0312,0.7401 -0.78357,2.5401 -1.81068,4 -1.02712,1.4599 -4.8969,8.61687 -8.5995,15.90437 -5.20038,10.23543 -7.18006,13.25 -8.7013,13.25 -7.62374,0 -55.65994,-15.8516 -86.33172,-28.48886 -7.15,-2.94591 -20.65,-8.39781 -30,-12.11533 -9.35,-3.71752 -21.5,-8.75724 -27,-11.19938 -5.5,-2.44213 -15.175,-6.66776 -21.5,-9.39028 -21.56232,-9.28125 -29.50582,-13.02184 -67,-31.55026 -75.45343,-37.28667 -103.61153,-55.02402 -119,-74.96044 -3.025,-3.91901 -10.45,-11.36807 -16.5,-16.55345 -11.66281,-9.99606 -20.3153,-18.81472 -27.55419,-28.08335 -5.58118,-7.1461 -4.14969,-7.34322 -27.03994,3.72336 -10.67323,5.16011 -25.48087,11.86856 -32.90587,14.90767 -7.425,3.03911 -16.89412,7.07405 -21.0425,8.96653 -24.12972,11.00796 -75.37434,27.8381 -108.72838,35.7094 -8.0395,1.89726 -7.5085,-3.53606 -8.03324,82.19734 l -0.46927,76.66875 -5.69622,2.07695 c -11.73204,4.27771 -27.73631,17.80761 -65.422298,55.30753 -12.040548,11.9811 -22.165548,21.74829 -22.5,21.70487 -0.334452,-0.0434 -1.283094,-0.32714 -2.108094,-0.63049 z m 59.000002,-67.45162 c 5.225,-4.20011 13.55,-10.09843 18.5,-13.10738 l 9,-5.47083 0.0304,-38.88037 c 0.0167,-21.3842 0.17454,-54.09753 0.35073,-72.69629 0.37043,-39.10242 1.372,-35.18767 -8.52341,-33.31477 -15.1675,2.87073 -38.4581,4.8789 -51.060316,4.40255 -14.93216,-0.56443 -13.289404,-5.06864 -13.333997,36.55994 -0.05491,51.25587 -3.301766,127.5351 -6.434545,151.16821 -1.385241,10.45 -2.520922,20.00767 -2.523737,21.23926 -0.0039,1.71664 5.187718,-2.95394 22.244873,-20.01226 12.237502,-12.23833 26.525002,-25.68796 31.750002,-29.88806 z m 629.2026,-28.58894 c 0.83191,-0.9625 4.1619,-6.77865 7.39996,-12.92479 l 5.88739,-11.17478 -2.49498,-2.69343 c -4.53819,-4.89917 -16.25535,-12.92438 -34.99497,-23.96843 -10.175,-5.99655 -20.3,-12.1102 -22.5,-13.58589 -3.58716,-2.40614 -14.64862,-8.61509 -52.87992,-29.6822 -13.95406,-7.6893 -13.17184,-7.84198 -19.73769,3.8527 -2.60214,4.63475 -5.59297,9.55182 -6.64631,10.92682 -2.49478,3.25663 -12.42137,28.89118 -11.6629,30.11841 0.93842,1.51839 20.80057,11.14243 35.42682,17.16577 29.34449,12.08455 42.51417,16.84489 67,24.21798 14.025,4.22316 26.625,8.0523 28,8.50921 3.91536,1.30105 5.57129,1.12601 7.2026,-0.76137 z m -138.83747,-63 c 2.61397,-5.9125 8.10116,-16.89877 12.19377,-24.41393 9.96797,-18.30396 10.98699,-15.51739 -9.5589,-26.13934 -7.975,-4.12297 -21.925,-11.37395 -31,-16.11331 -27.93675,-14.58976 -74.60786,-36.45443 -91.83578,-43.0236 -12.72514,-4.85221 -15.37412,-4.75519 -18.84404,0.69018 -1.48951,2.3375 -4.7053,7.32487 -7.1462,11.08305 -2.44089,3.75817 -5.68502,10.05817 -7.20916,14 -1.52414,3.94182 -3.71474,9.53428 -4.86799,12.42768 -1.15326,2.8934 -2.09683,5.87836 -2.09683,6.63325 0,2.41391 44.37814,26.24741 80.54621,43.25774 6.02458,2.83344 18.15379,8.54705 26.95379,12.69691 49.69466,23.43475 46.6653,22.92467 52.86513,8.90137 z m -163.3678,-74.5 c 3.31741,-9.15277 11.29565,-24.68024 16.90863,-32.90805 6.17008,-9.04445 6.39618,-8.68214 -8.17685,-13.10306 -41.98644,-12.73714 -61.99078,-6.6462 -55.17486,16.79971 2.02464,6.96454 8.24398,12.78109 27.5446,25.76073 17.0714,11.48049 16.05532,11.29497 18.89848,3.45067 z m -323.49733,-1.69035 c 21.09717,-2.7735 30.49364,-4.53871 48.38003,-9.08862 30.88401,-7.85623 37.79177,-9.81772 49.11997,-13.9478 6.325,-2.306 14.65,-5.24477 18.5,-6.53061 13.43803,-4.48809 47.55997,-18.45271 58.01131,-23.74149 2.74378,-1.38846 10.83869,-5.10753 17.98869,-8.2646 49.64578,-21.92101 62.27148,-34.71292 70.55764,-71.48653 4.74945,-21.07781 11.77399,-35.89235 21.31192,-44.94617 4.58265,-4.35004 4.54797,-5.5766 -0.27434,-9.70432 -3.90037,-3.33858 -7.09522,-10.10525 -7.09522,-15.02765 0,-15.98305 -54.69664,42.02327 -63.81173,67.67296 -3.62498,10.20061 -3.65966,11.25416 -0.6251,18.98874 3.49824,8.91643 15.92475,2.78664 -97.06317,47.87963 -178.473606,71.22804 -172.113422,68.53713 -166.309019,70.36325 3.940194,1.23962 35.552259,-0.0954 51.309019,-2.16679 z M 356.64092,417.15798 c -12.7846,-5.80245 -7.67017,-25.99395 6.5873,-26.00634 8.53489,-0.007 14.19286,5.57218 14.19286,13.99626 0,11.07167 -10.04994,16.88012 -20.78016,12.01008 z m 13.32782,-6.05202 c 8.60355,-8.98017 -2.88232,-21.43116 -12.38994,-13.43103 -3.79306,3.19166 -4.7857,7.34345 -2.71369,11.35028 3.15273,6.0967 10.31127,7.0829 15.10363,2.08075 z M 72.211802,524.76939 c 3.264063,-1.64596 234.070878,-94.63235 263.966758,-106.34571 1.60189,-0.62763 1.59249,-2.42514 -0.0242,-4.63616 -1.19427,-1.63326 -1.71208,-1.55783 -8.25,1.2018 -3.83671,1.61945 -49.2758,19.92665 -100.9758,40.68268 -157.798819,63.35157 -168.571982,67.73686 -167.954019,68.36678 0.629262,0.64144 6.398495,2.90301 7.737261,3.03304 0.430784,0.0418 2.905784,-0.99425 5.5,-2.30243 z m 68.926708,-43.99811 c 0.24575,-0.24575 -0.73818,-3.73189 -2.1865,-7.74699 -3.50242,-9.70952 -2.04638,-13.56761 17.50241,-46.37639 l 7.74593,-13 2.72652,-26.30425 c 2.86605,-27.65039 2.86152,-27.99387 -0.34692,-26.27677 -15.18283,8.1256 -31.33996,-10.85122 -33.67299,-39.54949 -0.39658,-4.87822 -1.07793,-9.54449 -1.51411,-10.36949 -1.02012,-1.92946 -46.642637,-24.65499 -47.591373,-23.70625 -0.855977,0.85597 1.14791,213.12192 2.02537,214.54168 0.496893,0.80399 53.698443,-19.59883 55.311663,-21.21205 z m 263.00898,6.38349 c 1.75694,-3.47029 4.43819,-6.73474 7.28107,-8.86478 5.94235,-4.45233 5.93781,-4.53069 -0.73573,-12.68786 -3.17035,-3.87517 -7.66004,-11.07517 -9.97709,-16 -3.79846,-8.07352 -5.1127,-12.08075 -6.7903,-20.70423 -0.78049,-4.01197 -1.63262,-3.49823 -6.8409,4.12436 -4.55509,6.66661 -11.01404,13.31513 -19.18729,19.75043 l -3.96869,3.12479 3.45817,4.37521 c 10.05278,12.71859 31.03756,33.39274 33.15214,32.66142 0.45515,-0.15742 2.07903,-2.75812 3.60862,-5.77934 z M 155.19062,472.081 c 2.37337,-0.82736 3.90096,-2.67965 6.80384,-8.25 17.56808,-33.71157 58.98119,-94.64849 79.85123,-117.49634 2.85697,-3.12772 8.53094,-9.73676 12.60883,-14.68676 29.34571,-35.6217 81.78739,-83.37064 120.26159,-109.5 6.12367,-4.15883 6.02824,-8 -0.19876,-8 -4.72027,0 -11.11151,4.06319 -30.58879,19.44665 -23.9696,18.93156 -31.1321,24.88188 -44.5,36.96883 -45.41262,41.06107 -64.62345,61.31692 -93.35563,98.43397 -24.73183,31.94929 -41.55318,58.43076 -56.8876,89.5569 -4.21723,8.56021 -4.33464,11.52914 -0.52851,13.36346 2.93847,1.41615 2.93975,1.41618 6.5338,0.16329 z m 79.90936,-27.37868 c 90.86149,-36.5151 91.77722,-36.89872 92.09818,-38.5817 0.27492,-1.44158 -84.35225,-44.03721 -87.39776,-43.99015 -1.43,0.0221 -19.67991,23.88471 -39.01766,51.01743 -25.11153,35.23387 -35.42998,56 -27.82577,56 0.72293,0 28.68729,-11.00051 62.14301,-24.44558 z m 106.1337,-52.83628 c 2.66747,-5.65502 7.66242,-14.46462 11.0999,-19.57688 3.43747,-5.11226 6.0465,-9.82522 5.79783,-10.47325 -1.25497,-3.27038 -75.27478,-43.66801 -80.01208,-43.66801 -3.27198,0 -34.5379,37.45264 -33.1103,39.66197 1.10571,1.71118 87.17685,44.24306 89.64712,44.29895 1.22436,0.0277 3.14034,-2.95594 6.57753,-10.24278 z M 181.56985,390.8979 c 1.25261,-1.7875 5.46833,-7.3 9.36827,-12.25 25.91149,-32.88817 24.84708,-28.80195 9.50582,-36.49229 -13.18096,-6.60741 -15.75872,-7.1984 -16.39026,-3.75771 -0.22715,1.2375 -1.35801,6.525 -2.51304,11.75 -1.7529,7.92958 -5.11208,35.62012 -5.11208,42.1401 0,2.90162 2.63262,2.18981 5.14129,-1.3901 z m -14.535,-38.14718 c 5.7448,-2.67496 8.89626,-7.62007 9.97414,-15.65089 l 0.59753,-4.45193 -17.59634,-8.75 c -21.33156,-10.60739 -19.58162,-10.58975 -19.58162,-0.19741 0,25.59208 10.17464,36.70131 26.60629,29.05023 z m 62.8838,-22.35282 c 16.11555,-16.7754 21.50991,-22.96538 21.50991,-24.68242 0,-1.09615 -19.23145,-10.56758 -21.45714,-10.56758 -0.39537,0 -4.38966,-1.61396 -8.87619,-3.58657 -51.29843,-22.5546 -125.820684,-34.95459 -152.467729,-25.36958 -5.94197,2.13734 -3.498907,3.52067 72.296029,40.93585 88.52273,43.6981 73.21582,39.69567 88.99512,23.2703 z m 226.00991,10.92229 c 1.65,-0.54112 7.05,-2.21352 12,-3.71643 16.17063,-4.90971 16.69628,-5.60111 11.0256,-14.5022 -1.91093,-2.99951 -3.48593,-5.83511 -3.5,-6.30133 -0.0141,-0.46622 -1.85381,-4.58978 -4.08829,-9.16346 -2.23448,-4.57369 -5.29884,-11.84125 -6.80968,-16.15013 -3.19269,-9.1055 -3.9957,-9.50135 -10.35881,-5.10647 -2.60215,1.79725 -7.77715,5.36846 -11.5,7.93601 -40.40715,27.86778 -30.94253,61.49102 13.23118,47.00401 z m 57.71338,-21.28305 c 30.92095,-13.2343 77.73207,-34.78354 92.21481,-42.45059 1.6105,-0.85259 10.99668,-5.66512 20.85817,-10.69451 21.39412,-10.91107 20.25946,-8.80098 12.86983,-23.93373 -3.30628,-6.77073 -8.33071,-17.93541 -11.1654,-24.81041 -6.92864,-16.80406 -5.66656,-16.06104 -18.10965,-10.6616 -23.68997,10.2798 -42.88923,19.25243 -68.88114,32.19111 -15.125,7.52917 -30.65,15.20597 -34.5,17.05957 -13.75106,6.62048 -37.98549,20.08605 -39.55664,21.97916 -3.4748,4.18688 17.72967,50.43176 23.12426,50.43176 1.02253,0 11.43812,-4.09984 23.14576,-9.11076 z M 183.43152,267.8979 c 0.0117,-8.88808 18.99529,-84.20049 26.60401,-105.54437 13.54004,-37.98235 14.81673,-116.114518 1.70072,-104.082148 -3.42898,3.145682 -10.84945,14.591495 -13.83172,21.334943 -3.34515,7.563966 -18.20211,59.445135 -26.42573,92.279825 -7.52461,30.0437 -15.1132,56.42699 -17.00004,59.10408 -2.34149,3.32216 -8.55864,29.04923 -7.31944,30.28843 0.49191,0.49191 5.81622,2.01533 11.83181,3.38539 6.01559,1.37005 12.96243,3.13429 15.43743,3.92053 6.79724,2.1593 8.99944,1.99133 9.00296,-0.68668 z m -44.52812,-18 c 2.29682,-12.01452 8.29311,-31.76435 13.28303,-43.75 l 3.95507,-9.5 3.7401,-67.35344 c 2.05705,-37.044385 3.35914,-67.700767 2.89353,-68.12529 -0.88149,-0.803701 -82.743728,9.033803 -83.771266,10.066914 -0.848918,0.853522 3.02403,183.844486 3.909759,184.730216 0.177623,0.17762 8.353647,0.49818 18.168947,0.71234 9.81529,0.21417 19.64599,0.80562 21.84599,1.31433 2.2,0.50871 6.29646,0.97668 9.10325,1.03993 l 5.10325,0.115 1.76834,-9.25 z m 523.73978,-2.06811 c 5.10696,-2.92497 15.81038,-8.84195 23.78538,-13.14885 57.89073,-31.26391 90.89065,-53.2075 89.59876,-59.57951 -1.46375,-7.21965 -10.12747,-24.43237 -12.47151,-24.77788 -6.38965,-0.94183 -49.90138,14.37945 -106.98944,37.67295 -34.30634,13.99793 -33.11223,10.56969 -15.85978,45.53288 11.04964,22.39277 9.5333,21.40427 21.93659,14.30041 z m -243.76107,-0.37301 c 7.4438,-2.34042 15.96187,-6.10451 37.35701,-16.50789 24.18957,-11.76216 47.66321,-40.34018 51.17329,-62.30099 0.81181,-5.07911 -0.73751,-19.6647 -3.07483,-28.94705 -1.4058,-5.58294 -0.69576,-6.64069 2.46467,-3.67161 2.15725,2.02663 5.38098,10.98451 7.1254,19.79956 2.84033,14.35304 46.4439,-1.85019 55.91278,-20.77738 23.27043,-46.514844 -25.09198,-78.822347 -77.00306,-51.440285 l -8.30803,4.382322 -5.30039,-1.410912 c -26.1322,-6.956134 -62.66441,7.500092 -79.81289,31.582905 l -2.01969,2.83639 4.00235,2.24944 c 9.0277,5.07385 14.13817,17.91491 10.54871,26.5057 -2.53545,6.06819 -4.55285,4.17165 -4.90278,-4.60908 -1.55621,-39.04989 -56.30752,-17.9426 -71.5327,27.57671 -4.92111,14.71284 -6.56613,42.76298 -3.0502,52.01058 l 0.96728,2.54414 15.74976,-8.25261 c 8.66238,-4.53894 17.50479,-9.51851 19.64981,-11.06572 4.64635,-3.35142 9.23739,-3.61485 15.26928,-0.87615 7.97857,3.62256 8.16285,7.1551 0.74248,14.23286 -7.78845,7.42885 -14.89966,17.53743 -13.51282,19.20847 7.62113,9.18289 30.01212,12.44616 47.55457,6.9306 z"
         id="path3423"
         inkscape:connector-curvature="0" />
    </g>
  </g>
</svg>
